solid OpenSCAD_Model
  facet normal -1 0 0
    outer loop
      vertex 34 26.904 1
      vertex 34 30.3 2
      vertex 34 30.3 1
    endloop
  endfacet
  facet normal -1 -0 0
    outer loop
      vertex 34 30.3 2
      vertex 34 26.904 1
      vertex 34 26.904 2
    endloop
  endfacet
  facet normal -1 0 0
    outer loop
      vertex 34 2 1
      vertex 34 2.00001 2
      vertex 34 2.00001 1
    endloop
  endfacet
  facet normal -1 -0 0
    outer loop
      vertex 34 2.00001 2
      vertex 34 2 1
      vertex 34 2 2
    endloop
  endfacet
  facet normal 0 0 -1
    outer loop
      vertex 21.8916 22.68 1
      vertex 34 26.904 1
      vertex 34 2.00001 1
    endloop
  endfacet
  facet normal 0 -0 -1
    outer loop
      vertex 28.25 30.1 1
      vertex 34 26.904 1
      vertex 21.8916 22.68 1
    endloop
  endfacet
  facet normal 0 0 -1
    outer loop
      vertex 34 26.904 1
      vertex 28.25 30.1 1
      vertex 33.2733 28.3661 1
    endloop
  endfacet
  facet normal 0 0 -1
    outer loop
      vertex 28.25 30.1 1
      vertex 21.8916 22.68 1
      vertex 23.2267 28.3661 1
    endloop
  endfacet
  facet normal 0 0 -1
    outer loop
      vertex 21.8564 2.00001 1
      vertex 21.8916 22.68 1
      vertex 34 2.00001 1
    endloop
  endfacet
  facet normal -0 0 -1
    outer loop
      vertex 21.8916 22.68 1
      vertex 21.8564 2.00001 1
      vertex 21.8564 22.68 1
    endloop
  endfacet
  facet normal 0 0 -1
    outer loop
      vertex 34 2.00001 1
      vertex 36 2 1
      vertex 34 2 1
    endloop
  endfacet
  facet normal 0 0 -1
    outer loop
      vertex 34 26.904 1
      vertex 36 2 1
      vertex 34 2.00001 1
    endloop
  endfacet
  facet normal 0 0 -1
    outer loop
      vertex 36 2 1
      vertex 34 26.904 1
      vertex 36 30.3 1
    endloop
  endfacet
  facet normal -0 0 -1
    outer loop
      vertex 36 30.3 1
      vertex 34 26.904 1
      vertex 34 30.3 1
    endloop
  endfacet
  facet normal 0 0 -1
    outer loop
      vertex 23.2267 28.3661 1
      vertex 21.8916 22.68 1
      vertex 21.146 24.18 1
    endloop
  endfacet
  facet normal 0 0 1
    outer loop
      vertex 34 26.904 2
      vertex 34.2705 30.3 2
      vertex 34 30.3 2
    endloop
  endfacet
  facet normal -0 0 1
    outer loop
      vertex 34.2705 2.1 2
      vertex 36 2 2
      vertex 36 2.1 2
    endloop
  endfacet
  facet normal 0 0 1
    outer loop
      vertex 34.2705 30.3 2
      vertex 34 26.904 2
      vertex 34.2705 2.1 2
    endloop
  endfacet
  facet normal -0 0 1
    outer loop
      vertex 21.8916 22.68 2
      vertex 34.2705 2.1 2
      vertex 34 26.904 2
    endloop
  endfacet
  facet normal 0 0 1
    outer loop
      vertex 34 2 2
      vertex 34.2705 2.1 2
      vertex 34 2.00001 2
    endloop
  endfacet
  facet normal 0 0 1
    outer loop
      vertex 34.2705 2.1 2
      vertex 34 2 2
      vertex 36 2 2
    endloop
  endfacet
  facet normal 0 0 1
    outer loop
      vertex 23.2267 28.3661 2
      vertex 21.146 24.18 2
      vertex 21.8916 22.68 2
    endloop
  endfacet
  facet normal 0 0 1
    outer loop
      vertex 28.25 30.1 2
      vertex 34 26.904 2
      vertex 33.2733 28.3661 2
    endloop
  endfacet
  facet normal 0 0 1
    outer loop
      vertex 34 26.904 2
      vertex 28.25 30.1 2
      vertex 21.8916 22.68 2
    endloop
  endfacet
  facet normal 0 0 1
    outer loop
      vertex 21.8916 22.68 2
      vertex 28.25 30.1 2
      vertex 23.2267 28.3661 2
    endloop
  endfacet
  facet normal 0 0 1
    outer loop
      vertex 34.2705 2.1 2
      vertex 21.8916 22.68 2
      vertex 34 2.00001 2
    endloop
  endfacet
  facet normal 0 0 1
    outer loop
      vertex 21.8564 2.00001 2
      vertex 21.8916 22.68 2
      vertex 21.8564 22.68 2
    endloop
  endfacet
  facet normal 0 0 1
    outer loop
      vertex 21.8916 22.68 2
      vertex 21.8564 2.00001 2
      vertex 34 2.00001 2
    endloop
  endfacet
  facet normal 0.89549 0.445081 0
    outer loop
      vertex 34 26.904 2
      vertex 33.2733 28.3661 1
      vertex 33.2733 28.3661 2
    endloop
  endfacet
  facet normal 0.89549 0.445081 0
    outer loop
      vertex 33.2733 28.3661 1
      vertex 34 26.904 2
      vertex 34 26.904 1
    endloop
  endfacet
  facet normal 0.326281 0.945273 -0
    outer loop
      vertex 33.2733 28.3661 1
      vertex 28.25 30.1 2
      vertex 33.2733 28.3661 2
    endloop
  endfacet
  facet normal 0.326281 0.945273 0
    outer loop
      vertex 28.25 30.1 2
      vertex 33.2733 28.3661 1
      vertex 28.25 30.1 1
    endloop
  endfacet
  facet normal -0.326281 0.945273 0
    outer loop
      vertex 28.25 30.1 1
      vertex 23.2267 28.3661 2
      vertex 28.25 30.1 2
    endloop
  endfacet
  facet normal -0.326281 0.945273 0
    outer loop
      vertex 23.2267 28.3661 2
      vertex 28.25 30.1 1
      vertex 23.2267 28.3661 1
    endloop
  endfacet
  facet normal -0.895481 0.445099 0
    outer loop
      vertex 21.146 24.18 1
      vertex 23.2267 28.3661 2
      vertex 23.2267 28.3661 1
    endloop
  endfacet
  facet normal -0.895481 0.445099 0
    outer loop
      vertex 23.2267 28.3661 2
      vertex 21.146 24.18 1
      vertex 21.146 24.18 2
    endloop
  endfacet
  facet normal -0.895475 -0.445111 0
    outer loop
      vertex 21.8916 22.68 1
      vertex 21.146 24.18 2
      vertex 21.146 24.18 1
    endloop
  endfacet
  facet normal -0.895475 -0.445111 0
    outer loop
      vertex 21.146 24.18 2
      vertex 21.8916 22.68 1
      vertex 21.8916 22.68 2
    endloop
  endfacet
  facet normal 0 1 -0
    outer loop
      vertex 21.8916 22.68 1
      vertex 21.8564 22.68 2
      vertex 21.8916 22.68 2
    endloop
  endfacet
  facet normal 0 1 0
    outer loop
      vertex 21.8564 22.68 2
      vertex 21.8916 22.68 1
      vertex 21.8564 22.68 1
    endloop
  endfacet
  facet normal -1 0 0
    outer loop
      vertex 21.8564 2.00001 1
      vertex 21.8564 22.68 2
      vertex 21.8564 22.68 1
    endloop
  endfacet
  facet normal -1 -0 0
    outer loop
      vertex 21.8564 22.68 2
      vertex 21.8564 2.00001 1
      vertex 21.8564 2.00001 2
    endloop
  endfacet
  facet normal 0 -1 0
    outer loop
      vertex 21.8564 2.00001 1
      vertex 34 2.00001 2
      vertex 21.8564 2.00001 2
    endloop
  endfacet
  facet normal 0 -1 -0
    outer loop
      vertex 34 2.00001 2
      vertex 21.8564 2.00001 1
      vertex 34 2.00001 1
    endloop
  endfacet
  facet normal 0.982333 0 -0.187141
    outer loop
      vertex 37.9842 2.1 2.74933
      vertex 37.9372 30.4 2.50262
      vertex 37.9842 30.4 2.74933
    endloop
  endfacet
  facet normal 0.982333 0 -0.187141
    outer loop
      vertex 37.9372 30.4 2.50262
      vertex 37.9842 2.1 2.74933
      vertex 37.9372 2.1 2.50262
    endloop
  endfacet
  facet normal 0.998019 0 -0.0629062
    outer loop
      vertex 38 2.1 3
      vertex 37.9842 30.4 2.74933
      vertex 38 30.4 3
    endloop
  endfacet
  facet normal 0.998019 0 -0.0629062
    outer loop
      vertex 37.9842 30.4 2.74933
      vertex 38 2.1 3
      vertex 37.9842 2.1 2.74933
    endloop
  endfacet
  facet normal 0.844287 0 -0.535891
    outer loop
      vertex 37.7526 2.1 2.03649
      vertex 37.618 30.4 1.82443
      vertex 37.7526 30.4 2.03649
    endloop
  endfacet
  facet normal 0.844287 0 -0.535891
    outer loop
      vertex 37.618 30.4 1.82443
      vertex 37.7526 2.1 2.03649
      vertex 37.618 2.1 1.82443
    endloop
  endfacet
  facet normal 0.684542 0 -0.728973
    outer loop
      vertex 37.2748 2.1 1.45897
      vertex 37.4579 30.4 1.63091
      vertex 37.4579 2.1 1.63091
    endloop
  endfacet
  facet normal 0.684542 0 -0.728973
    outer loop
      vertex 37.4579 30.4 1.63091
      vertex 37.2748 2.1 1.45897
      vertex 37.2748 30.4 1.45897
    endloop
  endfacet
  facet normal -0.248753 0 -0.968567
    outer loop
      vertex 35.382 30.3 1.09789
      vertex 35.6252 30.4 1.03543
      vertex 35.6252 30.3 1.03543
    endloop
  endfacet
  facet normal -0.248753 0 -0.968567
    outer loop
      vertex 35.6252 30.4 1.03543
      vertex 35.382 30.3 1.09789
      vertex 35.382 30.4 1.09789
    endloop
  endfacet
  facet normal -0.770501 0 0.637439
    outer loop
      vertex 34.382 2.1 4.17557
      vertex 34.5421 30.4 4.36909
      vertex 34.382 30.4 4.17557
    endloop
  endfacet
  facet normal -0.770501 0 0.637439
    outer loop
      vertex 34.5421 30.4 4.36909
      vertex 34.382 2.1 4.17557
      vertex 34.5421 2.1 4.36909
    endloop
  endfacet
  facet normal 0.904736 -0 0.425973
    outer loop
      vertex 37.7526 2.1 3.96351
      vertex 37.8596 30.4 3.73625
      vertex 37.7526 30.4 3.96351
    endloop
  endfacet
  facet normal 0.904736 0 0.425973
    outer loop
      vertex 37.8596 30.4 3.73625
      vertex 37.7526 2.1 3.96351
      vertex 37.8596 2.1 3.73625
    endloop
  endfacet
  facet normal 0.481751 0 -0.876308
    outer loop
      vertex 36.8516 2.1 1.19035
      vertex 37.0717 30.4 1.31135
      vertex 37.0717 2.1 1.31135
    endloop
  endfacet
  facet normal 0.481751 0 -0.876308
    outer loop
      vertex 37.0717 30.4 1.31135
      vertex 36.8516 2.1 1.19035
      vertex 36.8516 30.4 1.19035
    endloop
  endfacet
  facet normal 0.248753 0 0.968567
    outer loop
      vertex 36.3748 30.4 4.96457
      vertex 36.618 2.1 4.90211
      vertex 36.618 30.4 4.90211
    endloop
  endfacet
  facet normal 0.248753 0 0.968567
    outer loop
      vertex 36.618 2.1 4.90211
      vertex 36.3748 30.4 4.96457
      vertex 36.3748 2.1 4.96457
    endloop
  endfacet
  facet normal -0.951072 0 -0.308968
    outer loop
      vertex 34.1404 2.1 2.26375
      vertex 34.0628 30.4 2.50262
      vertex 34.1404 30.4 2.26375
    endloop
  endfacet
  facet normal -0.951072 -0 -0.308968
    outer loop
      vertex 34.0628 30.4 2.50262
      vertex 34.1404 2.1 2.26375
      vertex 34.0628 2.1 2.50262
    endloop
  endfacet
  facet normal -0.481751 0 -0.876308
    outer loop
      vertex 34.9283 30.3 1.31135
      vertex 35.1484 30.4 1.19035
      vertex 35.1484 30.3 1.19035
    endloop
  endfacet
  facet normal -0.481751 0 -0.876308
    outer loop
      vertex 35.1484 30.4 1.19035
      vertex 34.9283 30.3 1.31135
      vertex 34.9283 30.4 1.31135
    endloop
  endfacet
  facet normal -0.998019 0 -0.0629062
    outer loop
      vertex 34.0158 2.1 2.74933
      vertex 34 30.4 3
      vertex 34.0158 30.4 2.74933
    endloop
  endfacet
  facet normal -0.998019 -0 -0.0629062
    outer loop
      vertex 34 30.4 3
      vertex 34.0158 2.1 2.74933
      vertex 34 2.1 3
    endloop
  endfacet
  facet normal 0 0 -1
    outer loop
      vertex 36 30.3 1.00395
      vertex 36.1256 2.1 1.00395
      vertex 36 2.1 1.00395
    endloop
  endfacet
  facet normal 0 0 -1
    outer loop
      vertex 36.1256 2.1 1.00395
      vertex 36 30.3 1.00395
      vertex 36.1256 30.4 1.00395
    endloop
  endfacet
  facet normal 0 0 -1
    outer loop
      vertex 35.8744 30.4 1.00395
      vertex 36 30.3 1.00395
      vertex 35.8744 30.3 1.00395
    endloop
  endfacet
  facet normal 0 0 -1
    outer loop
      vertex 36 30.3 1.00395
      vertex 35.8744 30.4 1.00395
      vertex 36.1256 30.4 1.00395
    endloop
  endfacet
  facet normal 0.844287 -0 0.535891
    outer loop
      vertex 37.618 2.1 4.17557
      vertex 37.7526 30.4 3.96351
      vertex 37.618 30.4 4.17557
    endloop
  endfacet
  facet normal 0.844287 0 0.535891
    outer loop
      vertex 37.7526 30.4 3.96351
      vertex 37.618 2.1 4.17557
      vertex 37.7526 2.1 3.96351
    endloop
  endfacet
  facet normal -0.844154 0 -0.536101
    outer loop
      vertex 34.2705 30.3 2
      vertex 34.382 30.4 1.82443
      vertex 34.382 30.3 1.82443
    endloop
  endfacet
  facet normal -0.844287 0.000516303 -0.535891
    outer loop
      vertex 34.382 30.4 1.82443
      vertex 34.2705 30.3 2
      vertex 34.2474 30.4 2.03649
    endloop
  endfacet
  facet normal -0.844927 0 -0.534881
    outer loop
      vertex 34.2474 2.1 2.03649
      vertex 34.2705 30.3 2
      vertex 34.2705 2.1 2
    endloop
  endfacet
  facet normal -0.844927 0 -0.534881
    outer loop
      vertex 34.2705 30.3 2
      vertex 34.2474 2.1 2.03649
      vertex 34.2474 30.4 2.03649
    endloop
  endfacet
  facet normal 0.684542 0 0.728973
    outer loop
      vertex 37.2748 30.4 4.54103
      vertex 37.4579 2.1 4.36909
      vertex 37.4579 30.4 4.36909
    endloop
  endfacet
  facet normal 0.684542 0 0.728973
    outer loop
      vertex 37.4579 2.1 4.36909
      vertex 37.2748 30.4 4.54103
      vertex 37.2748 2.1 4.54103
    endloop
  endfacet
  facet normal -0.982333 0 0.187141
    outer loop
      vertex 34.0158 2.1 3.25067
      vertex 34.0628 30.4 3.49738
      vertex 34.0158 30.4 3.25067
    endloop
  endfacet
  facet normal -0.982333 0 0.187141
    outer loop
      vertex 34.0628 30.4 3.49738
      vertex 34.0158 2.1 3.25067
      vertex 34.0628 2.1 3.49738
    endloop
  endfacet
  facet normal -0.248753 0 0.968567
    outer loop
      vertex 35.382 30.4 4.90211
      vertex 35.6252 2.1 4.96457
      vertex 35.6252 30.4 4.96457
    endloop
  endfacet
  facet normal -0.248753 0 0.968567
    outer loop
      vertex 35.6252 2.1 4.96457
      vertex 35.382 30.4 4.90211
      vertex 35.382 2.1 4.90211
    endloop
  endfacet
  facet normal -0.904736 0 0.425973
    outer loop
      vertex 34.1404 2.1 3.73625
      vertex 34.2474 30.4 3.96351
      vertex 34.1404 30.4 3.73625
    endloop
  endfacet
  facet normal -0.904736 0 0.425973
    outer loop
      vertex 34.2474 30.4 3.96351
      vertex 34.1404 2.1 3.73625
      vertex 34.2474 2.1 3.96351
    endloop
  endfacet
  facet normal 0 1 0
    outer loop
      vertex 36.0565 30.4 3.89822
      vertex 36.1256 30.4 4.99605
      vertex 36.3748 30.4 4.96457
    endloop
  endfacet
  facet normal 0 1 0
    outer loop
      vertex 36.1256 30.4 4.99605
      vertex 36.0565 30.4 3.89822
      vertex 35.8744 30.4 4.99605
    endloop
  endfacet
  facet normal 0 1 0
    outer loop
      vertex 36.1686 30.4 3.88406
      vertex 36.3748 30.4 4.96457
      vertex 36.618 30.4 4.90211
    endloop
  endfacet
  facet normal 0 1 -0
    outer loop
      vertex 35.9435 30.4 3.89822
      vertex 35.8744 30.4 4.99605
      vertex 36.0565 30.4 3.89822
    endloop
  endfacet
  facet normal 0 1 0
    outer loop
      vertex 36.2781 30.4 3.85595
      vertex 36.618 30.4 4.90211
      vertex 36.8516 30.4 4.80965
    endloop
  endfacet
  facet normal 0 1 0
    outer loop
      vertex 35.8744 30.4 4.99605
      vertex 35.9435 30.4 3.89822
      vertex 35.6252 30.4 4.96457
    endloop
  endfacet
  facet normal 0 1 0
    outer loop
      vertex 36.3832 30.4 3.81434
      vertex 36.8516 30.4 4.80965
      vertex 37.0717 30.4 4.68865
    endloop
  endfacet
  facet normal 0 1 -0
    outer loop
      vertex 35.8314 30.4 3.88406
      vertex 35.6252 30.4 4.96457
      vertex 35.9435 30.4 3.89822
    endloop
  endfacet
  facet normal 0 1 0
    outer loop
      vertex 36.4822 30.4 3.75989
      vertex 37.0717 30.4 4.68865
      vertex 37.2748 30.4 4.54103
    endloop
  endfacet
  facet normal 0 1 0
    outer loop
      vertex 35.6252 30.4 4.96457
      vertex 35.8314 30.4 3.88406
      vertex 35.382 30.4 4.90211
    endloop
  endfacet
  facet normal 0 1 0
    outer loop
      vertex 36.5737 30.4 3.69346
      vertex 37.2748 30.4 4.54103
      vertex 37.4579 30.4 4.36909
    endloop
  endfacet
  facet normal 0 1 -0
    outer loop
      vertex 35.7219 30.4 3.85595
      vertex 35.382 30.4 4.90211
      vertex 35.8314 30.4 3.88406
    endloop
  endfacet
  facet normal 0 1 0
    outer loop
      vertex 36.6561 30.4 3.61609
      vertex 37.4579 30.4 4.36909
      vertex 37.618 30.4 4.17557
    endloop
  endfacet
  facet normal 0 1 0
    outer loop
      vertex 35.382 30.4 4.90211
      vertex 35.7219 30.4 3.85595
      vertex 35.1484 30.4 4.80965
    endloop
  endfacet
  facet normal 0 1 0
    outer loop
      vertex 36.7281 30.4 3.52901
      vertex 37.618 30.4 4.17557
      vertex 37.7526 30.4 3.96351
    endloop
  endfacet
  facet normal 0 1 -0
    outer loop
      vertex 35.6168 30.4 3.81434
      vertex 35.1484 30.4 4.80965
      vertex 35.7219 30.4 3.85595
    endloop
  endfacet
  facet normal 0 1 0
    outer loop
      vertex 35.1484 30.4 4.80965
      vertex 35.6168 30.4 3.81434
      vertex 34.9283 30.4 4.68865
    endloop
  endfacet
  facet normal 0 1 0
    outer loop
      vertex 36.3748 30.4 4.96457
      vertex 36.1686 30.4 3.88406
      vertex 36.0565 30.4 3.89822
    endloop
  endfacet
  facet normal 0 1 0
    outer loop
      vertex 36.618 30.4 4.90211
      vertex 36.2781 30.4 3.85595
      vertex 36.1686 30.4 3.88406
    endloop
  endfacet
  facet normal 0 1 0
    outer loop
      vertex 36.8516 30.4 4.80965
      vertex 36.3832 30.4 3.81434
      vertex 36.2781 30.4 3.85595
    endloop
  endfacet
  facet normal 0 1 0
    outer loop
      vertex 37.0717 30.4 4.68865
      vertex 36.4822 30.4 3.75989
      vertex 36.3832 30.4 3.81434
    endloop
  endfacet
  facet normal 0 1 0
    outer loop
      vertex 36.7887 30.4 3.43358
      vertex 37.7526 30.4 3.96351
      vertex 37.8596 30.4 3.73625
    endloop
  endfacet
  facet normal 0 1 0
    outer loop
      vertex 37.2748 30.4 4.54103
      vertex 36.5737 30.4 3.69346
      vertex 36.4822 30.4 3.75989
    endloop
  endfacet
  facet normal 0 1 0
    outer loop
      vertex 37.4579 30.4 4.36909
      vertex 36.6561 30.4 3.61609
      vertex 36.5737 30.4 3.69346
    endloop
  endfacet
  facet normal 0 1 0
    outer loop
      vertex 37.618 30.4 4.17557
      vertex 36.7281 30.4 3.52901
      vertex 36.6561 30.4 3.61609
    endloop
  endfacet
  facet normal 0 1 0
    outer loop
      vertex 36.8368 30.4 3.33131
      vertex 37.8596 30.4 3.73625
      vertex 37.9372 30.4 3.49738
    endloop
  endfacet
  facet normal 0 1 0
    outer loop
      vertex 37.7526 30.4 3.96351
      vertex 36.7887 30.4 3.43358
      vertex 36.7281 30.4 3.52901
    endloop
  endfacet
  facet normal 0 1 0
    outer loop
      vertex 37.8596 30.4 3.73625
      vertex 36.8368 30.4 3.33131
      vertex 36.7887 30.4 3.43358
    endloop
  endfacet
  facet normal 0 1 0
    outer loop
      vertex 36.8717 30.4 3.22382
      vertex 37.9372 30.4 3.49738
      vertex 37.9842 30.4 3.25067
    endloop
  endfacet
  facet normal 0 1 0
    outer loop
      vertex 37.9372 30.4 3.49738
      vertex 36.8717 30.4 3.22382
      vertex 36.8368 30.4 3.33131
    endloop
  endfacet
  facet normal 0 1 0
    outer loop
      vertex 37.9842 30.4 3.25067
      vertex 36.8929 30.4 3.1128
      vertex 36.8717 30.4 3.22382
    endloop
  endfacet
  facet normal 0 1 0
    outer loop
      vertex 38 30.4 3
      vertex 36.8929 30.4 3.1128
      vertex 37.9842 30.4 3.25067
    endloop
  endfacet
  facet normal 0 1 0
    outer loop
      vertex 38 30.4 3
      vertex 36.9 30.4 3
      vertex 36.8929 30.4 3.1128
    endloop
  endfacet
  facet normal 0 1 0
    outer loop
      vertex 38 30.4 3
      vertex 36.8929 30.4 2.8872
      vertex 36.9 30.4 3
    endloop
  endfacet
  facet normal 0 1 -0
    outer loop
      vertex 37.9842 30.4 2.74933
      vertex 36.8929 30.4 2.8872
      vertex 38 30.4 3
    endloop
  endfacet
  facet normal 0 1 0
    outer loop
      vertex 36.8929 30.4 2.8872
      vertex 37.9842 30.4 2.74933
      vertex 36.8717 30.4 2.77618
    endloop
  endfacet
  facet normal 0 1 -0
    outer loop
      vertex 37.9372 30.4 2.50262
      vertex 36.8717 30.4 2.77618
      vertex 37.9842 30.4 2.74933
    endloop
  endfacet
  facet normal 0 1 0
    outer loop
      vertex 36.8717 30.4 2.77618
      vertex 37.9372 30.4 2.50262
      vertex 36.8368 30.4 2.66869
    endloop
  endfacet
  facet normal 0 1 -0
    outer loop
      vertex 37.8596 30.4 2.26375
      vertex 36.8368 30.4 2.66869
      vertex 37.9372 30.4 2.50262
    endloop
  endfacet
  facet normal 0 1 0
    outer loop
      vertex 36.8368 30.4 2.66869
      vertex 37.8596 30.4 2.26375
      vertex 36.7887 30.4 2.56642
    endloop
  endfacet
  facet normal 0 1 -0
    outer loop
      vertex 37.7526 30.4 2.03649
      vertex 36.7887 30.4 2.56642
      vertex 37.8596 30.4 2.26375
    endloop
  endfacet
  facet normal 0 1 0
    outer loop
      vertex 36.7887 30.4 2.56642
      vertex 37.7526 30.4 2.03649
      vertex 36.7281 30.4 2.47099
    endloop
  endfacet
  facet normal 0 1 -0
    outer loop
      vertex 37.618 30.4 1.82443
      vertex 36.7281 30.4 2.47099
      vertex 37.7526 30.4 2.03649
    endloop
  endfacet
  facet normal 0 1 0
    outer loop
      vertex 36.7281 30.4 2.47099
      vertex 37.618 30.4 1.82443
      vertex 36.6561 30.4 2.38391
    endloop
  endfacet
  facet normal 0 1 -0
    outer loop
      vertex 37.4579 30.4 1.63091
      vertex 36.6561 30.4 2.38391
      vertex 37.618 30.4 1.82443
    endloop
  endfacet
  facet normal 0 1 0
    outer loop
      vertex 36.6561 30.4 2.38391
      vertex 37.4579 30.4 1.63091
      vertex 36.5737 30.4 2.30654
    endloop
  endfacet
  facet normal 0 1 -0
    outer loop
      vertex 37.2748 30.4 1.45897
      vertex 36.5737 30.4 2.30654
      vertex 37.4579 30.4 1.63091
    endloop
  endfacet
  facet normal 0 1 0
    outer loop
      vertex 36.5737 30.4 2.30654
      vertex 37.2748 30.4 1.45897
      vertex 36.4822 30.4 2.24011
    endloop
  endfacet
  facet normal 0 1 0
    outer loop
      vertex 36.4822 30.4 2.24011
      vertex 37.0717 30.4 1.31135
      vertex 36.3832 30.4 2.18566
    endloop
  endfacet
  facet normal 0 1 -0
    outer loop
      vertex 37.0717 30.4 1.31135
      vertex 36.4822 30.4 2.24011
      vertex 37.2748 30.4 1.45897
    endloop
  endfacet
  facet normal 0 1 -0
    outer loop
      vertex 35.5178 30.4 3.75989
      vertex 34.9283 30.4 4.68865
      vertex 35.6168 30.4 3.81434
    endloop
  endfacet
  facet normal 0 1 0
    outer loop
      vertex 34.9283 30.4 4.68865
      vertex 35.5178 30.4 3.75989
      vertex 34.7252 30.4 4.54103
    endloop
  endfacet
  facet normal 0 1 -0
    outer loop
      vertex 35.4263 30.4 3.69346
      vertex 34.7252 30.4 4.54103
      vertex 35.5178 30.4 3.75989
    endloop
  endfacet
  facet normal 0 1 0
    outer loop
      vertex 34.7252 30.4 4.54103
      vertex 35.4263 30.4 3.69346
      vertex 34.5421 30.4 4.36909
    endloop
  endfacet
  facet normal 0 1 -0
    outer loop
      vertex 35.3439 30.4 3.61609
      vertex 34.5421 30.4 4.36909
      vertex 35.4263 30.4 3.69346
    endloop
  endfacet
  facet normal 0 1 0
    outer loop
      vertex 34.5421 30.4 4.36909
      vertex 35.3439 30.4 3.61609
      vertex 34.382 30.4 4.17557
    endloop
  endfacet
  facet normal 0 1 -0
    outer loop
      vertex 35.2719 30.4 3.52901
      vertex 34.382 30.4 4.17557
      vertex 35.3439 30.4 3.61609
    endloop
  endfacet
  facet normal 0 1 0
    outer loop
      vertex 34.382 30.4 4.17557
      vertex 35.2719 30.4 3.52901
      vertex 34.2474 30.4 3.96351
    endloop
  endfacet
  facet normal 0 1 -0
    outer loop
      vertex 35.2113 30.4 3.43358
      vertex 34.2474 30.4 3.96351
      vertex 35.2719 30.4 3.52901
    endloop
  endfacet
  facet normal 0 1 0
    outer loop
      vertex 34.2474 30.4 3.96351
      vertex 35.2113 30.4 3.43358
      vertex 34.1404 30.4 3.73625
    endloop
  endfacet
  facet normal 0 1 -0
    outer loop
      vertex 35.1632 30.4 3.33131
      vertex 34.1404 30.4 3.73625
      vertex 35.2113 30.4 3.43358
    endloop
  endfacet
  facet normal 0 1 0
    outer loop
      vertex 34.1404 30.4 3.73625
      vertex 35.1632 30.4 3.33131
      vertex 34.0628 30.4 3.49738
    endloop
  endfacet
  facet normal 0 1 -0
    outer loop
      vertex 35.1283 30.4 3.22382
      vertex 34.0628 30.4 3.49738
      vertex 35.1632 30.4 3.33131
    endloop
  endfacet
  facet normal 0 1 0
    outer loop
      vertex 34.0628 30.4 3.49738
      vertex 35.1283 30.4 3.22382
      vertex 34.0158 30.4 3.25067
    endloop
  endfacet
  facet normal 0 1 -0
    outer loop
      vertex 35.1071 30.4 3.1128
      vertex 34.0158 30.4 3.25067
      vertex 35.1283 30.4 3.22382
    endloop
  endfacet
  facet normal 0 1 -0
    outer loop
      vertex 35.1 30.4 3
      vertex 34.0158 30.4 3.25067
      vertex 35.1071 30.4 3.1128
    endloop
  endfacet
  facet normal 0 1 0
    outer loop
      vertex 35.1 30.4 3
      vertex 34 30.4 3
      vertex 34.0158 30.4 3.25067
    endloop
  endfacet
  facet normal 0 1 0
    outer loop
      vertex 35.1071 30.4 2.8872
      vertex 34 30.4 3
      vertex 35.1 30.4 3
    endloop
  endfacet
  facet normal 0 1 0
    outer loop
      vertex 34.0158 30.4 2.74933
      vertex 35.1071 30.4 2.8872
      vertex 35.1283 30.4 2.77618
    endloop
  endfacet
  facet normal 0 1 0
    outer loop
      vertex 35.1071 30.4 2.8872
      vertex 34.0158 30.4 2.74933
      vertex 34 30.4 3
    endloop
  endfacet
  facet normal 0 1 0
    outer loop
      vertex 34.0628 30.4 2.50262
      vertex 35.1283 30.4 2.77618
      vertex 35.1632 30.4 2.66869
    endloop
  endfacet
  facet normal 0 1 0
    outer loop
      vertex 34.1404 30.4 2.26375
      vertex 35.1632 30.4 2.66869
      vertex 35.2113 30.4 2.56642
    endloop
  endfacet
  facet normal 0 1 0
    outer loop
      vertex 35.1283 30.4 2.77618
      vertex 34.0628 30.4 2.50262
      vertex 34.0158 30.4 2.74933
    endloop
  endfacet
  facet normal 0 1 0
    outer loop
      vertex 34.2474 30.4 2.03649
      vertex 35.2113 30.4 2.56642
      vertex 35.2719 30.4 2.47099
    endloop
  endfacet
  facet normal 0 1 0
    outer loop
      vertex 34.382 30.4 1.82443
      vertex 35.2719 30.4 2.47099
      vertex 35.3439 30.4 2.38391
    endloop
  endfacet
  facet normal 0 1 0
    outer loop
      vertex 34.5421 30.4 1.63091
      vertex 35.3439 30.4 2.38391
      vertex 35.4263 30.4 2.30654
    endloop
  endfacet
  facet normal 0 1 0
    outer loop
      vertex 35.1632 30.4 2.66869
      vertex 34.1404 30.4 2.26375
      vertex 34.0628 30.4 2.50262
    endloop
  endfacet
  facet normal 0 1 0
    outer loop
      vertex 34.7252 30.4 1.45897
      vertex 35.4263 30.4 2.30654
      vertex 35.5178 30.4 2.24011
    endloop
  endfacet
  facet normal 0 1 0
    outer loop
      vertex 34.9283 30.4 1.31135
      vertex 35.5178 30.4 2.24011
      vertex 35.6168 30.4 2.18566
    endloop
  endfacet
  facet normal 0 1 0
    outer loop
      vertex 35.1484 30.4 1.19035
      vertex 35.6168 30.4 2.18566
      vertex 35.7219 30.4 2.14405
    endloop
  endfacet
  facet normal 0 1 0
    outer loop
      vertex 35.382 30.4 1.09789
      vertex 35.7219 30.4 2.14405
      vertex 35.8314 30.4 2.11594
    endloop
  endfacet
  facet normal 0 1 0
    outer loop
      vertex 35.6252 30.4 1.03543
      vertex 35.8314 30.4 2.11594
      vertex 35.9435 30.4 2.10178
    endloop
  endfacet
  facet normal 0 1 0
    outer loop
      vertex 35.2113 30.4 2.56642
      vertex 34.2474 30.4 2.03649
      vertex 34.1404 30.4 2.26375
    endloop
  endfacet
  facet normal 0 1 -0
    outer loop
      vertex 36.8516 30.4 1.19035
      vertex 36.3832 30.4 2.18566
      vertex 37.0717 30.4 1.31135
    endloop
  endfacet
  facet normal 0 1 0
    outer loop
      vertex 36.3832 30.4 2.18566
      vertex 36.8516 30.4 1.19035
      vertex 36.2781 30.4 2.14405
    endloop
  endfacet
  facet normal 0 1 0
    outer loop
      vertex 35.2719 30.4 2.47099
      vertex 34.382 30.4 1.82443
      vertex 34.2474 30.4 2.03649
    endloop
  endfacet
  facet normal 0 1 -0
    outer loop
      vertex 36.618 30.4 1.09789
      vertex 36.2781 30.4 2.14405
      vertex 36.8516 30.4 1.19035
    endloop
  endfacet
  facet normal 0 1 0
    outer loop
      vertex 35.3439 30.4 2.38391
      vertex 34.5421 30.4 1.63091
      vertex 34.382 30.4 1.82443
    endloop
  endfacet
  facet normal 0 1 0
    outer loop
      vertex 36.2781 30.4 2.14405
      vertex 36.618 30.4 1.09789
      vertex 36.1686 30.4 2.11594
    endloop
  endfacet
  facet normal 0 1 0
    outer loop
      vertex 35.4263 30.4 2.30654
      vertex 34.7252 30.4 1.45897
      vertex 34.5421 30.4 1.63091
    endloop
  endfacet
  facet normal 0 1 -0
    outer loop
      vertex 36.3748 30.4 1.03543
      vertex 36.1686 30.4 2.11594
      vertex 36.618 30.4 1.09789
    endloop
  endfacet
  facet normal 0 1 0
    outer loop
      vertex 35.5178 30.4 2.24011
      vertex 34.9283 30.4 1.31135
      vertex 34.7252 30.4 1.45897
    endloop
  endfacet
  facet normal 0 1 0
    outer loop
      vertex 36.1686 30.4 2.11594
      vertex 36.3748 30.4 1.03543
      vertex 36.0565 30.4 2.10178
    endloop
  endfacet
  facet normal 0 1 0
    outer loop
      vertex 35.6168 30.4 2.18566
      vertex 35.1484 30.4 1.19035
      vertex 34.9283 30.4 1.31135
    endloop
  endfacet
  facet normal 0 1 -0
    outer loop
      vertex 36.1256 30.4 1.00395
      vertex 36.0565 30.4 2.10178
      vertex 36.3748 30.4 1.03543
    endloop
  endfacet
  facet normal 0 1 0
    outer loop
      vertex 35.7219 30.4 2.14405
      vertex 35.382 30.4 1.09789
      vertex 35.1484 30.4 1.19035
    endloop
  endfacet
  facet normal 0 1 0
    outer loop
      vertex 36.0565 30.4 2.10178
      vertex 36.1256 30.4 1.00395
      vertex 35.9435 30.4 2.10178
    endloop
  endfacet
  facet normal 0 1 0
    outer loop
      vertex 35.8314 30.4 2.11594
      vertex 35.6252 30.4 1.03543
      vertex 35.382 30.4 1.09789
    endloop
  endfacet
  facet normal 0 1 0
    outer loop
      vertex 35.8744 30.4 1.00395
      vertex 35.9435 30.4 2.10178
      vertex 36.1256 30.4 1.00395
    endloop
  endfacet
  facet normal 0 1 0
    outer loop
      vertex 35.9435 30.4 2.10178
      vertex 35.8744 30.4 1.00395
      vertex 35.6252 30.4 1.03543
    endloop
  endfacet
  facet normal 0.125328 0 0.992115
    outer loop
      vertex 36.1256 30.4 4.99605
      vertex 36.3748 2.1 4.96457
      vertex 36.3748 30.4 4.96457
    endloop
  endfacet
  facet normal 0.125328 0 0.992115
    outer loop
      vertex 36.3748 2.1 4.96457
      vertex 36.1256 30.4 4.99605
      vertex 36.1256 2.1 4.99605
    endloop
  endfacet
  facet normal -0.684542 0 -0.728973
    outer loop
      vertex 34.5421 30.3 1.63091
      vertex 34.7252 30.4 1.45897
      vertex 34.7252 30.3 1.45897
    endloop
  endfacet
  facet normal -0.684542 0 -0.728973
    outer loop
      vertex 34.7252 30.4 1.45897
      vertex 34.5421 30.3 1.63091
      vertex 34.5421 30.4 1.63091
    endloop
  endfacet
  facet normal -0.844287 0 0.535891
    outer loop
      vertex 34.2474 2.1 3.96351
      vertex 34.382 30.4 4.17557
      vertex 34.2474 30.4 3.96351
    endloop
  endfacet
  facet normal -0.844287 0 0.535891
    outer loop
      vertex 34.382 30.4 4.17557
      vertex 34.2474 2.1 3.96351
      vertex 34.382 2.1 4.17557
    endloop
  endfacet
  facet normal 0.904736 0 -0.425973
    outer loop
      vertex 37.8596 2.1 2.26375
      vertex 37.7526 30.4 2.03649
      vertex 37.8596 30.4 2.26375
    endloop
  endfacet
  facet normal 0.904736 0 -0.425973
    outer loop
      vertex 37.7526 30.4 2.03649
      vertex 37.8596 2.1 2.26375
      vertex 37.7526 2.1 2.03649
    endloop
  endfacet
  facet normal -0.770501 0 -0.637439
    outer loop
      vertex 34.5421 30.3 1.63091
      vertex 34.382 30.4 1.82443
      vertex 34.5421 30.4 1.63091
    endloop
  endfacet
  facet normal -0.770501 -0 -0.637439
    outer loop
      vertex 34.382 30.4 1.82443
      vertex 34.5421 30.3 1.63091
      vertex 34.382 30.3 1.82443
    endloop
  endfacet
  facet normal 0.58794 0 -0.808905
    outer loop
      vertex 37.0717 2.1 1.31135
      vertex 37.2748 30.4 1.45897
      vertex 37.2748 2.1 1.45897
    endloop
  endfacet
  facet normal 0.58794 0 -0.808905
    outer loop
      vertex 37.2748 30.4 1.45897
      vertex 37.0717 2.1 1.31135
      vertex 37.0717 30.4 1.31135
    endloop
  endfacet
  facet normal 0.481751 0 0.876308
    outer loop
      vertex 36.8516 30.4 4.80965
      vertex 37.0717 2.1 4.68865
      vertex 37.0717 30.4 4.68865
    endloop
  endfacet
  facet normal 0.481751 0 0.876308
    outer loop
      vertex 37.0717 2.1 4.68865
      vertex 36.8516 30.4 4.80965
      vertex 36.8516 2.1 4.80965
    endloop
  endfacet
  facet normal -0.368026 0 -0.929816
    outer loop
      vertex 35.1484 30.3 1.19035
      vertex 35.382 30.4 1.09789
      vertex 35.382 30.3 1.09789
    endloop
  endfacet
  facet normal -0.368026 0 -0.929816
    outer loop
      vertex 35.382 30.4 1.09789
      vertex 35.1484 30.3 1.19035
      vertex 35.1484 30.4 1.19035
    endloop
  endfacet
  facet normal 0.982333 -0 0.187141
    outer loop
      vertex 37.9372 2.1 3.49738
      vertex 37.9842 30.4 3.25067
      vertex 37.9372 30.4 3.49738
    endloop
  endfacet
  facet normal 0.982333 0 0.187141
    outer loop
      vertex 37.9842 30.4 3.25067
      vertex 37.9372 2.1 3.49738
      vertex 37.9842 2.1 3.25067
    endloop
  endfacet
  facet normal 0.998019 -0 0.0629062
    outer loop
      vertex 37.9842 2.1 3.25067
      vertex 38 30.4 3
      vertex 37.9842 30.4 3.25067
    endloop
  endfacet
  facet normal 0.998019 0 0.0629062
    outer loop
      vertex 38 30.4 3
      vertex 37.9842 2.1 3.25067
      vertex 38 2.1 3
    endloop
  endfacet
  facet normal -0.951072 0 0.308968
    outer loop
      vertex 34.0628 2.1 3.49738
      vertex 34.1404 30.4 3.73625
      vertex 34.0628 30.4 3.49738
    endloop
  endfacet
  facet normal -0.951072 0 0.308968
    outer loop
      vertex 34.1404 30.4 3.73625
      vertex 34.0628 2.1 3.49738
      vertex 34.1404 2.1 3.73625
    endloop
  endfacet
  facet normal -0 0 1
    outer loop
      vertex 35.8744 30.4 4.99605
      vertex 36.1256 2.1 4.99605
      vertex 36.1256 30.4 4.99605
    endloop
  endfacet
  facet normal 0 0 1
    outer loop
      vertex 36.1256 2.1 4.99605
      vertex 35.8744 30.4 4.99605
      vertex 35.8744 2.1 4.99605
    endloop
  endfacet
  facet normal 0.368026 0 0.929816
    outer loop
      vertex 36.618 30.4 4.90211
      vertex 36.8516 2.1 4.80965
      vertex 36.8516 30.4 4.80965
    endloop
  endfacet
  facet normal 0.368026 0 0.929816
    outer loop
      vertex 36.8516 2.1 4.80965
      vertex 36.618 30.4 4.90211
      vertex 36.618 2.1 4.90211
    endloop
  endfacet
  facet normal -0.58794 0 -0.808905
    outer loop
      vertex 34.7252 30.3 1.45897
      vertex 34.9283 30.4 1.31135
      vertex 34.9283 30.3 1.31135
    endloop
  endfacet
  facet normal -0.58794 0 -0.808905
    outer loop
      vertex 34.9283 30.4 1.31135
      vertex 34.7252 30.3 1.45897
      vertex 34.7252 30.4 1.45897
    endloop
  endfacet
  facet normal 0.951072 -0 0.308968
    outer loop
      vertex 37.8596 2.1 3.73625
      vertex 37.9372 30.4 3.49738
      vertex 37.8596 30.4 3.73625
    endloop
  endfacet
  facet normal 0.951072 0 0.308968
    outer loop
      vertex 37.9372 30.4 3.49738
      vertex 37.8596 2.1 3.73625
      vertex 37.9372 2.1 3.49738
    endloop
  endfacet
  facet normal -0.982333 0 -0.187141
    outer loop
      vertex 34.0628 2.1 2.50262
      vertex 34.0158 30.4 2.74933
      vertex 34.0628 30.4 2.50262
    endloop
  endfacet
  facet normal -0.982333 -0 -0.187141
    outer loop
      vertex 34.0158 30.4 2.74933
      vertex 34.0628 2.1 2.50262
      vertex 34.0158 2.1 2.74933
    endloop
  endfacet
  facet normal 0.368026 0 -0.929816
    outer loop
      vertex 36.618 2.1 1.09789
      vertex 36.8516 30.4 1.19035
      vertex 36.8516 2.1 1.19035
    endloop
  endfacet
  facet normal 0.368026 0 -0.929816
    outer loop
      vertex 36.8516 30.4 1.19035
      vertex 36.618 2.1 1.09789
      vertex 36.618 30.4 1.09789
    endloop
  endfacet
  facet normal 0.770501 0 -0.637439
    outer loop
      vertex 37.618 2.1 1.82443
      vertex 37.4579 30.4 1.63091
      vertex 37.618 30.4 1.82443
    endloop
  endfacet
  facet normal 0.770501 0 -0.637439
    outer loop
      vertex 37.4579 30.4 1.63091
      vertex 37.618 2.1 1.82443
      vertex 37.4579 2.1 1.63091
    endloop
  endfacet
  facet normal -0.368026 0 0.929816
    outer loop
      vertex 35.1484 30.4 4.80965
      vertex 35.382 2.1 4.90211
      vertex 35.382 30.4 4.90211
    endloop
  endfacet
  facet normal -0.368026 0 0.929816
    outer loop
      vertex 35.382 2.1 4.90211
      vertex 35.1484 30.4 4.80965
      vertex 35.1484 2.1 4.80965
    endloop
  endfacet
  facet normal 0.951072 0 -0.308968
    outer loop
      vertex 37.9372 2.1 2.50262
      vertex 37.8596 30.4 2.26375
      vertex 37.9372 30.4 2.50262
    endloop
  endfacet
  facet normal 0.951072 0 -0.308968
    outer loop
      vertex 37.8596 30.4 2.26375
      vertex 37.9372 2.1 2.50262
      vertex 37.8596 2.1 2.26375
    endloop
  endfacet
  facet normal 0.770501 -0 0.637439
    outer loop
      vertex 37.4579 2.1 4.36909
      vertex 37.618 30.4 4.17557
      vertex 37.4579 30.4 4.36909
    endloop
  endfacet
  facet normal 0.770501 0 0.637439
    outer loop
      vertex 37.618 30.4 4.17557
      vertex 37.4579 2.1 4.36909
      vertex 37.618 2.1 4.17557
    endloop
  endfacet
  facet normal -0.58794 0 0.808905
    outer loop
      vertex 34.7252 30.4 4.54103
      vertex 34.9283 2.1 4.68865
      vertex 34.9283 30.4 4.68865
    endloop
  endfacet
  facet normal -0.58794 0 0.808905
    outer loop
      vertex 34.9283 2.1 4.68865
      vertex 34.7252 30.4 4.54103
      vertex 34.7252 2.1 4.54103
    endloop
  endfacet
  facet normal -0.125328 0 -0.992115
    outer loop
      vertex 35.6252 30.3 1.03543
      vertex 35.8744 30.4 1.00395
      vertex 35.8744 30.3 1.00395
    endloop
  endfacet
  facet normal -0.125328 0 -0.992115
    outer loop
      vertex 35.8744 30.4 1.00395
      vertex 35.6252 30.3 1.03543
      vertex 35.6252 30.4 1.03543
    endloop
  endfacet
  facet normal 0.125328 0 -0.992115
    outer loop
      vertex 36.1256 2.1 1.00395
      vertex 36.3748 30.4 1.03543
      vertex 36.3748 2.1 1.03543
    endloop
  endfacet
  facet normal 0.125328 0 -0.992115
    outer loop
      vertex 36.3748 30.4 1.03543
      vertex 36.1256 2.1 1.00395
      vertex 36.1256 30.4 1.00395
    endloop
  endfacet
  facet normal -0.684542 0 0.728973
    outer loop
      vertex 34.5421 30.4 4.36909
      vertex 34.7252 2.1 4.54103
      vertex 34.7252 30.4 4.54103
    endloop
  endfacet
  facet normal -0.684542 0 0.728973
    outer loop
      vertex 34.7252 2.1 4.54103
      vertex 34.5421 30.4 4.36909
      vertex 34.5421 2.1 4.36909
    endloop
  endfacet
  facet normal -0.998019 0 0.0629062
    outer loop
      vertex 34 2.1 3
      vertex 34.0158 30.4 3.25067
      vertex 34 30.4 3
    endloop
  endfacet
  facet normal -0.998019 0 0.0629062
    outer loop
      vertex 34.0158 30.4 3.25067
      vertex 34 2.1 3
      vertex 34.0158 2.1 3.25067
    endloop
  endfacet
  facet normal -0.904736 0 -0.425973
    outer loop
      vertex 34.2474 2.1 2.03649
      vertex 34.1404 30.4 2.26375
      vertex 34.2474 30.4 2.03649
    endloop
  endfacet
  facet normal -0.904736 -0 -0.425973
    outer loop
      vertex 34.1404 30.4 2.26375
      vertex 34.2474 2.1 2.03649
      vertex 34.1404 2.1 2.26375
    endloop
  endfacet
  facet normal -0.125328 0 0.992115
    outer loop
      vertex 35.6252 30.4 4.96457
      vertex 35.8744 2.1 4.99605
      vertex 35.8744 30.4 4.99605
    endloop
  endfacet
  facet normal -0.125328 0 0.992115
    outer loop
      vertex 35.8744 2.1 4.99605
      vertex 35.6252 30.4 4.96457
      vertex 35.6252 2.1 4.96457
    endloop
  endfacet
  facet normal 0.58794 0 0.808905
    outer loop
      vertex 37.0717 30.4 4.68865
      vertex 37.2748 2.1 4.54103
      vertex 37.2748 30.4 4.54103
    endloop
  endfacet
  facet normal 0.58794 0 0.808905
    outer loop
      vertex 37.2748 2.1 4.54103
      vertex 37.0717 30.4 4.68865
      vertex 37.0717 2.1 4.68865
    endloop
  endfacet
  facet normal -0.481751 0 0.876308
    outer loop
      vertex 34.9283 30.4 4.68865
      vertex 35.1484 2.1 4.80965
      vertex 35.1484 30.4 4.80965
    endloop
  endfacet
  facet normal -0.481751 0 0.876308
    outer loop
      vertex 35.1484 2.1 4.80965
      vertex 34.9283 30.4 4.68865
      vertex 34.9283 2.1 4.68865
    endloop
  endfacet
  facet normal 0.248753 0 -0.968567
    outer loop
      vertex 36.3748 2.1 1.03543
      vertex 36.618 30.4 1.09789
      vertex 36.618 2.1 1.09789
    endloop
  endfacet
  facet normal 0.248753 0 -0.968567
    outer loop
      vertex 36.618 30.4 1.09789
      vertex 36.3748 2.1 1.03543
      vertex 36.3748 30.4 1.03543
    endloop
  endfacet
  facet normal 0 -1 0
    outer loop
      vertex 35.9435 2.1 3.89822
      vertex 35.8744 2.1 4.99605
      vertex 35.6252 2.1 4.96457
    endloop
  endfacet
  facet normal 0 -1 0
    outer loop
      vertex 35.8744 2.1 4.99605
      vertex 35.9435 2.1 3.89822
      vertex 36.1256 2.1 4.99605
    endloop
  endfacet
  facet normal 0 -1 0
    outer loop
      vertex 35.8314 2.1 3.88406
      vertex 35.6252 2.1 4.96457
      vertex 35.382 2.1 4.90211
    endloop
  endfacet
  facet normal 0 -1 0
    outer loop
      vertex 36.0565 2.1 3.89822
      vertex 36.1256 2.1 4.99605
      vertex 35.9435 2.1 3.89822
    endloop
  endfacet
  facet normal 0 -1 0
    outer loop
      vertex 35.7219 2.1 3.85595
      vertex 35.382 2.1 4.90211
      vertex 35.1484 2.1 4.80965
    endloop
  endfacet
  facet normal 0 -1 -0
    outer loop
      vertex 36.1256 2.1 4.99605
      vertex 36.0565 2.1 3.89822
      vertex 36.3748 2.1 4.96457
    endloop
  endfacet
  facet normal 0 -1 0
    outer loop
      vertex 35.6168 2.1 3.81434
      vertex 35.1484 2.1 4.80965
      vertex 34.9283 2.1 4.68865
    endloop
  endfacet
  facet normal 0 -1 0
    outer loop
      vertex 36.1686 2.1 3.88406
      vertex 36.3748 2.1 4.96457
      vertex 36.0565 2.1 3.89822
    endloop
  endfacet
  facet normal 0 -1 0
    outer loop
      vertex 35.5178 2.1 3.75989
      vertex 34.9283 2.1 4.68865
      vertex 34.7252 2.1 4.54103
    endloop
  endfacet
  facet normal 0 -1 -0
    outer loop
      vertex 36.3748 2.1 4.96457
      vertex 36.1686 2.1 3.88406
      vertex 36.618 2.1 4.90211
    endloop
  endfacet
  facet normal 0 -1 0
    outer loop
      vertex 35.4263 2.1 3.69346
      vertex 34.7252 2.1 4.54103
      vertex 34.5421 2.1 4.36909
    endloop
  endfacet
  facet normal 0 -1 0
    outer loop
      vertex 36.2781 2.1 3.85595
      vertex 36.618 2.1 4.90211
      vertex 36.1686 2.1 3.88406
    endloop
  endfacet
  facet normal 0 -1 0
    outer loop
      vertex 35.3439 2.1 3.61609
      vertex 34.5421 2.1 4.36909
      vertex 34.382 2.1 4.17557
    endloop
  endfacet
  facet normal 0 -1 -0
    outer loop
      vertex 36.618 2.1 4.90211
      vertex 36.2781 2.1 3.85595
      vertex 36.8516 2.1 4.80965
    endloop
  endfacet
  facet normal 0 -1 0
    outer loop
      vertex 35.2719 2.1 3.52901
      vertex 34.382 2.1 4.17557
      vertex 34.2474 2.1 3.96351
    endloop
  endfacet
  facet normal 0 -1 0
    outer loop
      vertex 36.3832 2.1 3.81434
      vertex 36.8516 2.1 4.80965
      vertex 36.2781 2.1 3.85595
    endloop
  endfacet
  facet normal 0 -1 -0
    outer loop
      vertex 36.8516 2.1 4.80965
      vertex 36.3832 2.1 3.81434
      vertex 37.0717 2.1 4.68865
    endloop
  endfacet
  facet normal 0 -1 0
    outer loop
      vertex 35.6252 2.1 4.96457
      vertex 35.8314 2.1 3.88406
      vertex 35.9435 2.1 3.89822
    endloop
  endfacet
  facet normal 0 -1 0
    outer loop
      vertex 35.382 2.1 4.90211
      vertex 35.7219 2.1 3.85595
      vertex 35.8314 2.1 3.88406
    endloop
  endfacet
  facet normal 0 -1 0
    outer loop
      vertex 35.1484 2.1 4.80965
      vertex 35.6168 2.1 3.81434
      vertex 35.7219 2.1 3.85595
    endloop
  endfacet
  facet normal 0 -1 0
    outer loop
      vertex 34.9283 2.1 4.68865
      vertex 35.5178 2.1 3.75989
      vertex 35.6168 2.1 3.81434
    endloop
  endfacet
  facet normal 0 -1 0
    outer loop
      vertex 35.2113 2.1 3.43358
      vertex 34.2474 2.1 3.96351
      vertex 34.1404 2.1 3.73625
    endloop
  endfacet
  facet normal 0 -1 0
    outer loop
      vertex 34.7252 2.1 4.54103
      vertex 35.4263 2.1 3.69346
      vertex 35.5178 2.1 3.75989
    endloop
  endfacet
  facet normal 0 -1 0
    outer loop
      vertex 34.5421 2.1 4.36909
      vertex 35.3439 2.1 3.61609
      vertex 35.4263 2.1 3.69346
    endloop
  endfacet
  facet normal 0 -1 0
    outer loop
      vertex 34.382 2.1 4.17557
      vertex 35.2719 2.1 3.52901
      vertex 35.3439 2.1 3.61609
    endloop
  endfacet
  facet normal 0 -1 0
    outer loop
      vertex 35.1632 2.1 3.33131
      vertex 34.1404 2.1 3.73625
      vertex 34.0628 2.1 3.49738
    endloop
  endfacet
  facet normal 0 -1 0
    outer loop
      vertex 34.2474 2.1 3.96351
      vertex 35.2113 2.1 3.43358
      vertex 35.2719 2.1 3.52901
    endloop
  endfacet
  facet normal 0 -1 0
    outer loop
      vertex 34.1404 2.1 3.73625
      vertex 35.1632 2.1 3.33131
      vertex 35.2113 2.1 3.43358
    endloop
  endfacet
  facet normal 0 -1 0
    outer loop
      vertex 35.1283 2.1 3.22382
      vertex 34.0628 2.1 3.49738
      vertex 34.0158 2.1 3.25067
    endloop
  endfacet
  facet normal 0 -1 0
    outer loop
      vertex 34.0628 2.1 3.49738
      vertex 35.1283 2.1 3.22382
      vertex 35.1632 2.1 3.33131
    endloop
  endfacet
  facet normal 0 -1 0
    outer loop
      vertex 34.0158 2.1 3.25067
      vertex 35.1071 2.1 3.1128
      vertex 35.1283 2.1 3.22382
    endloop
  endfacet
  facet normal 0 -1 0
    outer loop
      vertex 34 2.1 3
      vertex 35.1071 2.1 3.1128
      vertex 34.0158 2.1 3.25067
    endloop
  endfacet
  facet normal 0 -1 0
    outer loop
      vertex 34 2.1 3
      vertex 35.1 2.1 3
      vertex 35.1071 2.1 3.1128
    endloop
  endfacet
  facet normal 0 -1 0
    outer loop
      vertex 34 2.1 3
      vertex 35.1071 2.1 2.8872
      vertex 35.1 2.1 3
    endloop
  endfacet
  facet normal 0 -1 0
    outer loop
      vertex 34.0158 2.1 2.74933
      vertex 35.1071 2.1 2.8872
      vertex 34 2.1 3
    endloop
  endfacet
  facet normal 0 -1 -0
    outer loop
      vertex 35.1071 2.1 2.8872
      vertex 34.0158 2.1 2.74933
      vertex 35.1283 2.1 2.77618
    endloop
  endfacet
  facet normal 0 -1 0
    outer loop
      vertex 34.0628 2.1 2.50262
      vertex 35.1283 2.1 2.77618
      vertex 34.0158 2.1 2.74933
    endloop
  endfacet
  facet normal 0 -1 -0
    outer loop
      vertex 35.1283 2.1 2.77618
      vertex 34.0628 2.1 2.50262
      vertex 35.1632 2.1 2.66869
    endloop
  endfacet
  facet normal 0 -1 0
    outer loop
      vertex 34.1404 2.1 2.26375
      vertex 35.1632 2.1 2.66869
      vertex 34.0628 2.1 2.50262
    endloop
  endfacet
  facet normal 0 -1 -0
    outer loop
      vertex 35.1632 2.1 2.66869
      vertex 34.1404 2.1 2.26375
      vertex 35.2113 2.1 2.56642
    endloop
  endfacet
  facet normal 0 -1 0
    outer loop
      vertex 34.2474 2.1 2.03649
      vertex 35.2113 2.1 2.56642
      vertex 34.1404 2.1 2.26375
    endloop
  endfacet
  facet normal 0 -1 0
    outer loop
      vertex 34.2705 2.1 2
      vertex 35.2113 2.1 2.56642
      vertex 34.2474 2.1 2.03649
    endloop
  endfacet
  facet normal 0 -1 -0
    outer loop
      vertex 35.2113 2.1 2.56642
      vertex 34.2705 2.1 2
      vertex 35.2719 2.1 2.47099
    endloop
  endfacet
  facet normal 0 -1 -0
    outer loop
      vertex 35.2719 2.1 2.47099
      vertex 34.2705 2.1 2
      vertex 35.3439 2.1 2.38391
    endloop
  endfacet
  facet normal 0 -1 -0
    outer loop
      vertex 35.3439 2.1 2.38391
      vertex 34.2705 2.1 2
      vertex 35.4263 2.1 2.30654
    endloop
  endfacet
  facet normal 0 -1 -0
    outer loop
      vertex 35.4263 2.1 2.30654
      vertex 34.2705 2.1 2
      vertex 35.5178 2.1 2.24011
    endloop
  endfacet
  facet normal 0 -1 -0
    outer loop
      vertex 35.5178 2.1 2.24011
      vertex 34.2705 2.1 2
      vertex 35.6168 2.1 2.18566
    endloop
  endfacet
  facet normal 0 -1 -0
    outer loop
      vertex 35.6168 2.1 2.18566
      vertex 34.2705 2.1 2
      vertex 35.7219 2.1 2.14405
    endloop
  endfacet
  facet normal 0 -1 0
    outer loop
      vertex 35.7219 2.1 2.14405
      vertex 36 2.1 2
      vertex 35.8314 2.1 2.11594
    endloop
  endfacet
  facet normal 0 -1 0
    outer loop
      vertex 36 2.1 2
      vertex 35.7219 2.1 2.14405
      vertex 34.2705 2.1 2
    endloop
  endfacet
  facet normal 0 -1 0
    outer loop
      vertex 36.4822 2.1 3.75989
      vertex 37.0717 2.1 4.68865
      vertex 36.3832 2.1 3.81434
    endloop
  endfacet
  facet normal 0 -1 -0
    outer loop
      vertex 37.0717 2.1 4.68865
      vertex 36.4822 2.1 3.75989
      vertex 37.2748 2.1 4.54103
    endloop
  endfacet
  facet normal 0 -1 0
    outer loop
      vertex 36.5737 2.1 3.69346
      vertex 37.2748 2.1 4.54103
      vertex 36.4822 2.1 3.75989
    endloop
  endfacet
  facet normal 0 -1 -0
    outer loop
      vertex 37.2748 2.1 4.54103
      vertex 36.5737 2.1 3.69346
      vertex 37.4579 2.1 4.36909
    endloop
  endfacet
  facet normal 0 -1 0
    outer loop
      vertex 36.6561 2.1 3.61609
      vertex 37.4579 2.1 4.36909
      vertex 36.5737 2.1 3.69346
    endloop
  endfacet
  facet normal 0 -1 -0
    outer loop
      vertex 37.4579 2.1 4.36909
      vertex 36.6561 2.1 3.61609
      vertex 37.618 2.1 4.17557
    endloop
  endfacet
  facet normal 0 -1 0
    outer loop
      vertex 36.7281 2.1 3.52901
      vertex 37.618 2.1 4.17557
      vertex 36.6561 2.1 3.61609
    endloop
  endfacet
  facet normal 0 -1 -0
    outer loop
      vertex 37.618 2.1 4.17557
      vertex 36.7281 2.1 3.52901
      vertex 37.7526 2.1 3.96351
    endloop
  endfacet
  facet normal 0 -1 0
    outer loop
      vertex 36.7887 2.1 3.43358
      vertex 37.7526 2.1 3.96351
      vertex 36.7281 2.1 3.52901
    endloop
  endfacet
  facet normal 0 -1 -0
    outer loop
      vertex 37.7526 2.1 3.96351
      vertex 36.7887 2.1 3.43358
      vertex 37.8596 2.1 3.73625
    endloop
  endfacet
  facet normal 0 -1 0
    outer loop
      vertex 36.8368 2.1 3.33131
      vertex 37.8596 2.1 3.73625
      vertex 36.7887 2.1 3.43358
    endloop
  endfacet
  facet normal 0 -1 -0
    outer loop
      vertex 37.8596 2.1 3.73625
      vertex 36.8368 2.1 3.33131
      vertex 37.9372 2.1 3.49738
    endloop
  endfacet
  facet normal 0 -1 0
    outer loop
      vertex 36.8717 2.1 3.22382
      vertex 37.9372 2.1 3.49738
      vertex 36.8368 2.1 3.33131
    endloop
  endfacet
  facet normal 0 -1 -0
    outer loop
      vertex 37.9372 2.1 3.49738
      vertex 36.8717 2.1 3.22382
      vertex 37.9842 2.1 3.25067
    endloop
  endfacet
  facet normal 0 -1 0
    outer loop
      vertex 36.8929 2.1 3.1128
      vertex 37.9842 2.1 3.25067
      vertex 36.8717 2.1 3.22382
    endloop
  endfacet
  facet normal 0 -1 0
    outer loop
      vertex 36.9 2.1 3
      vertex 37.9842 2.1 3.25067
      vertex 36.8929 2.1 3.1128
    endloop
  endfacet
  facet normal 0 -1 0
    outer loop
      vertex 36.9 2.1 3
      vertex 38 2.1 3
      vertex 37.9842 2.1 3.25067
    endloop
  endfacet
  facet normal 0 -1 0
    outer loop
      vertex 36.8929 2.1 2.8872
      vertex 38 2.1 3
      vertex 36.9 2.1 3
    endloop
  endfacet
  facet normal 0 -1 0
    outer loop
      vertex 37.9842 2.1 2.74933
      vertex 36.8929 2.1 2.8872
      vertex 36.8717 2.1 2.77618
    endloop
  endfacet
  facet normal 0 -1 0
    outer loop
      vertex 36.8929 2.1 2.8872
      vertex 37.9842 2.1 2.74933
      vertex 38 2.1 3
    endloop
  endfacet
  facet normal 0 -1 0
    outer loop
      vertex 37.9372 2.1 2.50262
      vertex 36.8717 2.1 2.77618
      vertex 36.8368 2.1 2.66869
    endloop
  endfacet
  facet normal 0 -1 0
    outer loop
      vertex 37.8596 2.1 2.26375
      vertex 36.8368 2.1 2.66869
      vertex 36.7887 2.1 2.56642
    endloop
  endfacet
  facet normal 0 -1 0
    outer loop
      vertex 36.8717 2.1 2.77618
      vertex 37.9372 2.1 2.50262
      vertex 37.9842 2.1 2.74933
    endloop
  endfacet
  facet normal 0 -1 0
    outer loop
      vertex 37.7526 2.1 2.03649
      vertex 36.7887 2.1 2.56642
      vertex 36.7281 2.1 2.47099
    endloop
  endfacet
  facet normal 0 -1 0
    outer loop
      vertex 37.618 2.1 1.82443
      vertex 36.7281 2.1 2.47099
      vertex 36.6561 2.1 2.38391
    endloop
  endfacet
  facet normal 0 -1 0
    outer loop
      vertex 37.4579 2.1 1.63091
      vertex 36.6561 2.1 2.38391
      vertex 36.5737 2.1 2.30654
    endloop
  endfacet
  facet normal 0 -1 0
    outer loop
      vertex 36.8368 2.1 2.66869
      vertex 37.8596 2.1 2.26375
      vertex 37.9372 2.1 2.50262
    endloop
  endfacet
  facet normal 0 -1 0
    outer loop
      vertex 37.2748 2.1 1.45897
      vertex 36.5737 2.1 2.30654
      vertex 36.4822 2.1 2.24011
    endloop
  endfacet
  facet normal 0 -1 0
    outer loop
      vertex 37.0717 2.1 1.31135
      vertex 36.4822 2.1 2.24011
      vertex 36.3832 2.1 2.18566
    endloop
  endfacet
  facet normal 0 -1 0
    outer loop
      vertex 36.8516 2.1 1.19035
      vertex 36.3832 2.1 2.18566
      vertex 36.2781 2.1 2.14405
    endloop
  endfacet
  facet normal 0 -1 0
    outer loop
      vertex 36 2.1 2
      vertex 36.2781 2.1 2.14405
      vertex 36.1686 2.1 2.11594
    endloop
  endfacet
  facet normal 0 -1 0
    outer loop
      vertex 36 2.1 2
      vertex 36.1686 2.1 2.11594
      vertex 36.0565 2.1 2.10178
    endloop
  endfacet
  facet normal 0 -1 0
    outer loop
      vertex 36.7887 2.1 2.56642
      vertex 37.7526 2.1 2.03649
      vertex 37.8596 2.1 2.26375
    endloop
  endfacet
  facet normal 0 -1 0
    outer loop
      vertex 35.8314 2.1 2.11594
      vertex 36 2.1 2
      vertex 35.9435 2.1 2.10178
    endloop
  endfacet
  facet normal 0 -1 0
    outer loop
      vertex 35.9435 2.1 2.10178
      vertex 36 2.1 2
      vertex 36.0565 2.1 2.10178
    endloop
  endfacet
  facet normal 0 -1 -0
    outer loop
      vertex 36.2781 2.1 2.14405
      vertex 36 2.1 2
      vertex 36.618 2.1 1.09789
    endloop
  endfacet
  facet normal 0 -1 0
    outer loop
      vertex 36.7281 2.1 2.47099
      vertex 37.618 2.1 1.82443
      vertex 37.7526 2.1 2.03649
    endloop
  endfacet
  facet normal 0 -1 0
    outer loop
      vertex 36.6561 2.1 2.38391
      vertex 37.4579 2.1 1.63091
      vertex 37.618 2.1 1.82443
    endloop
  endfacet
  facet normal 0 -1 0
    outer loop
      vertex 36.5737 2.1 2.30654
      vertex 37.2748 2.1 1.45897
      vertex 37.4579 2.1 1.63091
    endloop
  endfacet
  facet normal 0 -1 0
    outer loop
      vertex 36.4822 2.1 2.24011
      vertex 37.0717 2.1 1.31135
      vertex 37.2748 2.1 1.45897
    endloop
  endfacet
  facet normal 0 -1 0
    outer loop
      vertex 36.3832 2.1 2.18566
      vertex 36.8516 2.1 1.19035
      vertex 37.0717 2.1 1.31135
    endloop
  endfacet
  facet normal 0 -1 0
    outer loop
      vertex 36.2781 2.1 2.14405
      vertex 36.618 2.1 1.09789
      vertex 36.8516 2.1 1.19035
    endloop
  endfacet
  facet normal 0 -1 0
    outer loop
      vertex 36 2.1 2
      vertex 36.3748 2.1 1.03543
      vertex 36.618 2.1 1.09789
    endloop
  endfacet
  facet normal 0 -1 0
    outer loop
      vertex 36.1256 2.1 1.00395
      vertex 36 2.1 2
      vertex 36 2.1 1.00395
    endloop
  endfacet
  facet normal 0 -1 0
    outer loop
      vertex 36 2.1 2
      vertex 36.1256 2.1 1.00395
      vertex 36.3748 2.1 1.03543
    endloop
  endfacet
  facet normal -0.844175 0 0.536068
    outer loop
      vertex 36.7281 2.1 2.47099
      vertex 36.7887 30.4 2.56642
      vertex 36.7281 30.4 2.47099
    endloop
  endfacet
  facet normal -0.844175 0 0.536068
    outer loop
      vertex 36.7887 30.4 2.56642
      vertex 36.7281 2.1 2.47099
      vertex 36.7887 2.1 2.56642
    endloop
  endfacet
  facet normal -0.982252 0 0.187567
    outer loop
      vertex 36.8717 2.1 2.77618
      vertex 36.8929 30.4 2.8872
      vertex 36.8717 30.4 2.77618
    endloop
  endfacet
  facet normal -0.982252 0 0.187567
    outer loop
      vertex 36.8929 30.4 2.8872
      vertex 36.8717 2.1 2.77618
      vertex 36.8929 2.1 2.8872
    endloop
  endfacet
  facet normal -0.998025 0 0.0628189
    outer loop
      vertex 36.8929 2.1 2.8872
      vertex 36.9 30.4 3
      vertex 36.8929 30.4 2.8872
    endloop
  endfacet
  facet normal -0.998025 0 0.0628189
    outer loop
      vertex 36.9 30.4 3
      vertex 36.8929 2.1 2.8872
      vertex 36.9 2.1 3
    endloop
  endfacet
  facet normal -0.951123 0 0.308812
    outer loop
      vertex 36.8368 2.1 2.66869
      vertex 36.8717 30.4 2.77618
      vertex 36.8368 30.4 2.66869
    endloop
  endfacet
  facet normal -0.951123 0 0.308812
    outer loop
      vertex 36.8717 30.4 2.77618
      vertex 36.8368 2.1 2.66869
      vertex 36.8717 2.1 2.77618
    endloop
  endfacet
  facet normal -0.24865 0 0.968593
    outer loop
      vertex 36.1686 30.4 2.11594
      vertex 36.2781 2.1 2.14405
      vertex 36.2781 30.4 2.14405
    endloop
  endfacet
  facet normal -0.24865 0 0.968593
    outer loop
      vertex 36.2781 2.1 2.14405
      vertex 36.1686 30.4 2.11594
      vertex 36.1686 2.1 2.11594
    endloop
  endfacet
  facet normal -0.904911 0 -0.425601
    outer loop
      vertex 36.8368 2.1 3.33131
      vertex 36.7887 30.4 3.43358
      vertex 36.8368 30.4 3.33131
    endloop
  endfacet
  facet normal -0.904911 -0 -0.425601
    outer loop
      vertex 36.7887 30.4 3.43358
      vertex 36.8368 2.1 3.33131
      vertex 36.7887 2.1 3.43358
    endloop
  endfacet
  facet normal -0.368109 0 0.929783
    outer loop
      vertex 36.2781 30.4 2.14405
      vertex 36.3832 2.1 2.18566
      vertex 36.3832 30.4 2.18566
    endloop
  endfacet
  facet normal -0.368109 0 0.929783
    outer loop
      vertex 36.3832 2.1 2.18566
      vertex 36.2781 30.4 2.14405
      vertex 36.2781 2.1 2.14405
    endloop
  endfacet
  facet normal -0.998025 0 -0.0628189
    outer loop
      vertex 36.9 2.1 3
      vertex 36.8929 30.4 3.1128
      vertex 36.9 30.4 3
    endloop
  endfacet
  facet normal -0.998025 -0 -0.0628189
    outer loop
      vertex 36.8929 30.4 3.1128
      vertex 36.9 2.1 3
      vertex 36.8929 2.1 3.1128
    endloop
  endfacet
  facet normal -0.904911 0 0.425601
    outer loop
      vertex 36.7887 2.1 2.56642
      vertex 36.8368 30.4 2.66869
      vertex 36.7887 30.4 2.56642
    endloop
  endfacet
  facet normal -0.904911 0 0.425601
    outer loop
      vertex 36.8368 30.4 2.66869
      vertex 36.7887 2.1 2.56642
      vertex 36.8368 2.1 2.66869
    endloop
  endfacet
  facet normal 0.951123 0 -0.308812
    outer loop
      vertex 35.1632 2.1 3.33131
      vertex 35.1283 30.4 3.22382
      vertex 35.1632 30.4 3.33131
    endloop
  endfacet
  facet normal 0.951123 0 -0.308812
    outer loop
      vertex 35.1283 30.4 3.22382
      vertex 35.1632 2.1 3.33131
      vertex 35.1283 2.1 3.22382
    endloop
  endfacet
  facet normal 0.904911 0 -0.425601
    outer loop
      vertex 35.2113 2.1 3.43358
      vertex 35.1632 30.4 3.33131
      vertex 35.2113 30.4 3.43358
    endloop
  endfacet
  facet normal 0.904911 0 -0.425601
    outer loop
      vertex 35.1632 30.4 3.33131
      vertex 35.2113 2.1 3.43358
      vertex 35.1632 2.1 3.33131
    endloop
  endfacet
  facet normal -0.951123 0 -0.308812
    outer loop
      vertex 36.8717 2.1 3.22382
      vertex 36.8368 30.4 3.33131
      vertex 36.8717 30.4 3.22382
    endloop
  endfacet
  facet normal -0.951123 -0 -0.308812
    outer loop
      vertex 36.8368 30.4 3.33131
      vertex 36.8717 2.1 3.22382
      vertex 36.8368 2.1 3.33131
    endloop
  endfacet
  facet normal 0.24865 0 -0.968593
    outer loop
      vertex 35.7219 2.1 3.85595
      vertex 35.8314 30.4 3.88406
      vertex 35.8314 2.1 3.88406
    endloop
  endfacet
  facet normal 0.24865 0 -0.968593
    outer loop
      vertex 35.8314 30.4 3.88406
      vertex 35.7219 2.1 3.85595
      vertex 35.7219 30.4 3.85595
    endloop
  endfacet
  facet normal 0.844175 0 -0.536068
    outer loop
      vertex 35.2719 2.1 3.52901
      vertex 35.2113 30.4 3.43358
      vertex 35.2719 30.4 3.52901
    endloop
  endfacet
  facet normal 0.844175 0 -0.536068
    outer loop
      vertex 35.2113 30.4 3.43358
      vertex 35.2719 2.1 3.52901
      vertex 35.2113 2.1 3.43358
    endloop
  endfacet
  facet normal 0.770682 -0 0.63722
    outer loop
      vertex 35.2719 2.1 2.47099
      vertex 35.3439 30.4 2.38391
      vertex 35.2719 30.4 2.47099
    endloop
  endfacet
  facet normal 0.770682 0 0.63722
    outer loop
      vertex 35.3439 30.4 2.38391
      vertex 35.2719 2.1 2.47099
      vertex 35.3439 2.1 2.38391
    endloop
  endfacet
  facet normal 0.904911 -0 0.425601
    outer loop
      vertex 35.1632 2.1 2.66869
      vertex 35.2113 30.4 2.56642
      vertex 35.1632 30.4 2.66869
    endloop
  endfacet
  facet normal 0.904911 0 0.425601
    outer loop
      vertex 35.2113 30.4 2.56642
      vertex 35.1632 2.1 2.66869
      vertex 35.2113 2.1 2.56642
    endloop
  endfacet
  facet normal 0.844175 -0 0.536068
    outer loop
      vertex 35.2113 2.1 2.56642
      vertex 35.2719 30.4 2.47099
      vertex 35.2113 30.4 2.56642
    endloop
  endfacet
  facet normal 0.844175 0 0.536068
    outer loop
      vertex 35.2719 30.4 2.47099
      vertex 35.2113 2.1 2.56642
      vertex 35.2719 2.1 2.47099
    endloop
  endfacet
  facet normal 0.368109 0 -0.929783
    outer loop
      vertex 35.6168 2.1 3.81434
      vertex 35.7219 30.4 3.85595
      vertex 35.7219 2.1 3.85595
    endloop
  endfacet
  facet normal 0.368109 0 -0.929783
    outer loop
      vertex 35.7219 30.4 3.85595
      vertex 35.6168 2.1 3.81434
      vertex 35.6168 30.4 3.81434
    endloop
  endfacet
  facet normal 0.368109 0 0.929783
    outer loop
      vertex 35.6168 30.4 2.18566
      vertex 35.7219 2.1 2.14405
      vertex 35.7219 30.4 2.14405
    endloop
  endfacet
  facet normal 0.368109 0 0.929783
    outer loop
      vertex 35.7219 2.1 2.14405
      vertex 35.6168 30.4 2.18566
      vertex 35.6168 2.1 2.18566
    endloop
  endfacet
  facet normal -0.587504 0 0.809222
    outer loop
      vertex 36.4822 30.4 2.24011
      vertex 36.5737 2.1 2.30654
      vertex 36.5737 30.4 2.30654
    endloop
  endfacet
  facet normal -0.587504 0 0.809222
    outer loop
      vertex 36.5737 2.1 2.30654
      vertex 36.4822 30.4 2.24011
      vertex 36.4822 2.1 2.24011
    endloop
  endfacet
  facet normal -0.12532 0 -0.992116
    outer loop
      vertex 36.0565 2.1 3.89822
      vertex 36.1686 30.4 3.88406
      vertex 36.1686 2.1 3.88406
    endloop
  endfacet
  facet normal -0.12532 0 -0.992116
    outer loop
      vertex 36.1686 30.4 3.88406
      vertex 36.0565 2.1 3.89822
      vertex 36.0565 30.4 3.89822
    endloop
  endfacet
  facet normal -0.844175 0 -0.536068
    outer loop
      vertex 36.7887 2.1 3.43358
      vertex 36.7281 30.4 3.52901
      vertex 36.7887 30.4 3.43358
    endloop
  endfacet
  facet normal -0.844175 -0 -0.536068
    outer loop
      vertex 36.7281 30.4 3.52901
      vertex 36.7887 2.1 3.43358
      vertex 36.7281 2.1 3.52901
    endloop
  endfacet
  facet normal -0.770682 0 -0.63722
    outer loop
      vertex 36.7281 2.1 3.52901
      vertex 36.6561 30.4 3.61609
      vertex 36.7281 30.4 3.52901
    endloop
  endfacet
  facet normal -0.770682 -0 -0.63722
    outer loop
      vertex 36.6561 30.4 3.61609
      vertex 36.7281 2.1 3.52901
      vertex 36.6561 2.1 3.61609
    endloop
  endfacet
  facet normal -0.982252 0 -0.187567
    outer loop
      vertex 36.8929 2.1 3.1128
      vertex 36.8717 30.4 3.22382
      vertex 36.8929 30.4 3.1128
    endloop
  endfacet
  facet normal -0.982252 -0 -0.187567
    outer loop
      vertex 36.8717 30.4 3.22382
      vertex 36.8929 2.1 3.1128
      vertex 36.8717 2.1 3.22382
    endloop
  endfacet
  facet normal -0.684506 0 0.729007
    outer loop
      vertex 36.5737 30.4 2.30654
      vertex 36.6561 2.1 2.38391
      vertex 36.6561 30.4 2.38391
    endloop
  endfacet
  facet normal -0.684506 0 0.729007
    outer loop
      vertex 36.6561 2.1 2.38391
      vertex 36.5737 30.4 2.30654
      vertex 36.5737 2.1 2.30654
    endloop
  endfacet
  facet normal 0 0 -1
    outer loop
      vertex 35.9435 2.1 3.89822
      vertex 36.0565 30.4 3.89822
      vertex 36.0565 2.1 3.89822
    endloop
  endfacet
  facet normal -0 0 -1
    outer loop
      vertex 36.0565 30.4 3.89822
      vertex 35.9435 2.1 3.89822
      vertex 35.9435 30.4 3.89822
    endloop
  endfacet
  facet normal -0.24865 0 -0.968593
    outer loop
      vertex 36.1686 2.1 3.88406
      vertex 36.2781 30.4 3.85595
      vertex 36.2781 2.1 3.85595
    endloop
  endfacet
  facet normal -0.24865 0 -0.968593
    outer loop
      vertex 36.2781 30.4 3.85595
      vertex 36.1686 2.1 3.88406
      vertex 36.1686 30.4 3.88406
    endloop
  endfacet
  facet normal -0.481919 0 -0.876216
    outer loop
      vertex 36.3832 2.1 3.81434
      vertex 36.4822 30.4 3.75989
      vertex 36.4822 2.1 3.75989
    endloop
  endfacet
  facet normal -0.481919 0 -0.876216
    outer loop
      vertex 36.4822 30.4 3.75989
      vertex 36.3832 2.1 3.81434
      vertex 36.3832 30.4 3.81434
    endloop
  endfacet
  facet normal 0.481919 0 0.876216
    outer loop
      vertex 35.5178 30.4 2.24011
      vertex 35.6168 2.1 2.18566
      vertex 35.6168 30.4 2.18566
    endloop
  endfacet
  facet normal 0.481919 0 0.876216
    outer loop
      vertex 35.6168 2.1 2.18566
      vertex 35.5178 30.4 2.24011
      vertex 35.5178 2.1 2.24011
    endloop
  endfacet
  facet normal -0.481919 0 0.876216
    outer loop
      vertex 36.3832 30.4 2.18566
      vertex 36.4822 2.1 2.24011
      vertex 36.4822 30.4 2.24011
    endloop
  endfacet
  facet normal -0.481919 0 0.876216
    outer loop
      vertex 36.4822 2.1 2.24011
      vertex 36.3832 30.4 2.18566
      vertex 36.3832 2.1 2.18566
    endloop
  endfacet
  facet normal -0.770682 0 0.63722
    outer loop
      vertex 36.6561 2.1 2.38391
      vertex 36.7281 30.4 2.47099
      vertex 36.6561 30.4 2.38391
    endloop
  endfacet
  facet normal -0.770682 0 0.63722
    outer loop
      vertex 36.7281 30.4 2.47099
      vertex 36.6561 2.1 2.38391
      vertex 36.7281 2.1 2.47099
    endloop
  endfacet
  facet normal -0 0 1
    outer loop
      vertex 35.9435 30.4 2.10178
      vertex 36.0565 2.1 2.10178
      vertex 36.0565 30.4 2.10178
    endloop
  endfacet
  facet normal 0 0 1
    outer loop
      vertex 36.0565 2.1 2.10178
      vertex 35.9435 30.4 2.10178
      vertex 35.9435 2.1 2.10178
    endloop
  endfacet
  facet normal 0.12532 0 -0.992116
    outer loop
      vertex 35.8314 2.1 3.88406
      vertex 35.9435 30.4 3.89822
      vertex 35.9435 2.1 3.89822
    endloop
  endfacet
  facet normal 0.12532 0 -0.992116
    outer loop
      vertex 35.9435 30.4 3.89822
      vertex 35.8314 2.1 3.88406
      vertex 35.8314 30.4 3.88406
    endloop
  endfacet
  facet normal 0.24865 0 0.968593
    outer loop
      vertex 35.7219 30.4 2.14405
      vertex 35.8314 2.1 2.11594
      vertex 35.8314 30.4 2.11594
    endloop
  endfacet
  facet normal 0.24865 0 0.968593
    outer loop
      vertex 35.8314 2.1 2.11594
      vertex 35.7219 30.4 2.14405
      vertex 35.7219 2.1 2.14405
    endloop
  endfacet
  facet normal 0.770682 0 -0.63722
    outer loop
      vertex 35.3439 2.1 3.61609
      vertex 35.2719 30.4 3.52901
      vertex 35.3439 30.4 3.61609
    endloop
  endfacet
  facet normal 0.770682 0 -0.63722
    outer loop
      vertex 35.2719 30.4 3.52901
      vertex 35.3439 2.1 3.61609
      vertex 35.2719 2.1 3.52901
    endloop
  endfacet
  facet normal 0.998025 -0 0.0628189
    outer loop
      vertex 35.1 2.1 3
      vertex 35.1071 30.4 2.8872
      vertex 35.1 30.4 3
    endloop
  endfacet
  facet normal 0.998025 0 0.0628189
    outer loop
      vertex 35.1071 30.4 2.8872
      vertex 35.1 2.1 3
      vertex 35.1071 2.1 2.8872
    endloop
  endfacet
  facet normal 0.684506 0 0.729007
    outer loop
      vertex 35.3439 30.4 2.38391
      vertex 35.4263 2.1 2.30654
      vertex 35.4263 30.4 2.30654
    endloop
  endfacet
  facet normal 0.684506 0 0.729007
    outer loop
      vertex 35.4263 2.1 2.30654
      vertex 35.3439 30.4 2.38391
      vertex 35.3439 2.1 2.38391
    endloop
  endfacet
  facet normal -0.12532 0 0.992116
    outer loop
      vertex 36.0565 30.4 2.10178
      vertex 36.1686 2.1 2.11594
      vertex 36.1686 30.4 2.11594
    endloop
  endfacet
  facet normal -0.12532 0 0.992116
    outer loop
      vertex 36.1686 2.1 2.11594
      vertex 36.0565 30.4 2.10178
      vertex 36.0565 2.1 2.10178
    endloop
  endfacet
  facet normal 0.481919 0 -0.876216
    outer loop
      vertex 35.5178 2.1 3.75989
      vertex 35.6168 30.4 3.81434
      vertex 35.6168 2.1 3.81434
    endloop
  endfacet
  facet normal 0.481919 0 -0.876216
    outer loop
      vertex 35.6168 30.4 3.81434
      vertex 35.5178 2.1 3.75989
      vertex 35.5178 30.4 3.75989
    endloop
  endfacet
  facet normal -0.368109 0 -0.929783
    outer loop
      vertex 36.2781 2.1 3.85595
      vertex 36.3832 30.4 3.81434
      vertex 36.3832 2.1 3.81434
    endloop
  endfacet
  facet normal -0.368109 0 -0.929783
    outer loop
      vertex 36.3832 30.4 3.81434
      vertex 36.2781 2.1 3.85595
      vertex 36.2781 30.4 3.85595
    endloop
  endfacet
  facet normal 0.684506 0 -0.729007
    outer loop
      vertex 35.3439 2.1 3.61609
      vertex 35.4263 30.4 3.69346
      vertex 35.4263 2.1 3.69346
    endloop
  endfacet
  facet normal 0.684506 0 -0.729007
    outer loop
      vertex 35.4263 30.4 3.69346
      vertex 35.3439 2.1 3.61609
      vertex 35.3439 30.4 3.61609
    endloop
  endfacet
  facet normal 0.587504 0 0.809222
    outer loop
      vertex 35.4263 30.4 2.30654
      vertex 35.5178 2.1 2.24011
      vertex 35.5178 30.4 2.24011
    endloop
  endfacet
  facet normal 0.587504 0 0.809222
    outer loop
      vertex 35.5178 2.1 2.24011
      vertex 35.4263 30.4 2.30654
      vertex 35.4263 2.1 2.30654
    endloop
  endfacet
  facet normal 0.951123 -0 0.308812
    outer loop
      vertex 35.1283 2.1 2.77618
      vertex 35.1632 30.4 2.66869
      vertex 35.1283 30.4 2.77618
    endloop
  endfacet
  facet normal 0.951123 0 0.308812
    outer loop
      vertex 35.1632 30.4 2.66869
      vertex 35.1283 2.1 2.77618
      vertex 35.1632 2.1 2.66869
    endloop
  endfacet
  facet normal -0.684506 0 -0.729007
    outer loop
      vertex 36.5737 2.1 3.69346
      vertex 36.6561 30.4 3.61609
      vertex 36.6561 2.1 3.61609
    endloop
  endfacet
  facet normal -0.684506 0 -0.729007
    outer loop
      vertex 36.6561 30.4 3.61609
      vertex 36.5737 2.1 3.69346
      vertex 36.5737 30.4 3.69346
    endloop
  endfacet
  facet normal 0.982252 -0 0.187567
    outer loop
      vertex 35.1071 2.1 2.8872
      vertex 35.1283 30.4 2.77618
      vertex 35.1071 30.4 2.8872
    endloop
  endfacet
  facet normal 0.982252 0 0.187567
    outer loop
      vertex 35.1283 30.4 2.77618
      vertex 35.1071 2.1 2.8872
      vertex 35.1283 2.1 2.77618
    endloop
  endfacet
  facet normal 0.982252 0 -0.187567
    outer loop
      vertex 35.1283 2.1 3.22382
      vertex 35.1071 30.4 3.1128
      vertex 35.1283 30.4 3.22382
    endloop
  endfacet
  facet normal 0.982252 0 -0.187567
    outer loop
      vertex 35.1071 30.4 3.1128
      vertex 35.1283 2.1 3.22382
      vertex 35.1071 2.1 3.1128
    endloop
  endfacet
  facet normal 0.12532 0 0.992116
    outer loop
      vertex 35.8314 30.4 2.11594
      vertex 35.9435 2.1 2.10178
      vertex 35.9435 30.4 2.10178
    endloop
  endfacet
  facet normal 0.12532 0 0.992116
    outer loop
      vertex 35.9435 2.1 2.10178
      vertex 35.8314 30.4 2.11594
      vertex 35.8314 2.1 2.11594
    endloop
  endfacet
  facet normal 0.587504 0 -0.809222
    outer loop
      vertex 35.4263 2.1 3.69346
      vertex 35.5178 30.4 3.75989
      vertex 35.5178 2.1 3.75989
    endloop
  endfacet
  facet normal 0.587504 0 -0.809222
    outer loop
      vertex 35.5178 30.4 3.75989
      vertex 35.4263 2.1 3.69346
      vertex 35.4263 30.4 3.69346
    endloop
  endfacet
  facet normal 0.998025 0 -0.0628189
    outer loop
      vertex 35.1071 2.1 3.1128
      vertex 35.1 30.4 3
      vertex 35.1071 30.4 3.1128
    endloop
  endfacet
  facet normal 0.998025 0 -0.0628189
    outer loop
      vertex 35.1 30.4 3
      vertex 35.1071 2.1 3.1128
      vertex 35.1 2.1 3
    endloop
  endfacet
  facet normal -0.587504 0 -0.809222
    outer loop
      vertex 36.4822 2.1 3.75989
      vertex 36.5737 30.4 3.69346
      vertex 36.5737 2.1 3.69346
    endloop
  endfacet
  facet normal -0.587504 0 -0.809222
    outer loop
      vertex 36.5737 30.4 3.69346
      vertex 36.4822 2.1 3.75989
      vertex 36.4822 30.4 3.75989
    endloop
  endfacet
  facet normal 1 0 0
    outer loop
      vertex 36 2.1 2
      vertex 36 2 2
      vertex 36 2.1 1.00395
    endloop
  endfacet
  facet normal 1 -0 0
    outer loop
      vertex 36 2.1 1.00395
      vertex 36 30.3 1
      vertex 36 30.3 1.00395
    endloop
  endfacet
  facet normal 1 0 0
    outer loop
      vertex 36 2.1 1.00395
      vertex 36 2 1
      vertex 36 30.3 1
    endloop
  endfacet
  facet normal 1 0 0
    outer loop
      vertex 36 2 1
      vertex 36 2.1 1.00395
      vertex 36 2 2
    endloop
  endfacet
  facet normal 0 1 0
    outer loop
      vertex 36 30.3 1.00395
      vertex 36 30.3 1
      vertex 35.8744 30.3 1.00395
    endloop
  endfacet
  facet normal 0 1 0
    outer loop
      vertex 34.382 30.3 1.82443
      vertex 34 30.3 2
      vertex 34.2705 30.3 2
    endloop
  endfacet
  facet normal 0 1 0
    outer loop
      vertex 34 30.3 1
      vertex 34.382 30.3 1.82443
      vertex 34.5421 30.3 1.63091
    endloop
  endfacet
  facet normal 0 1 0
    outer loop
      vertex 34 30.3 1
      vertex 34.5421 30.3 1.63091
      vertex 34.7252 30.3 1.45897
    endloop
  endfacet
  facet normal 0 1 0
    outer loop
      vertex 34.382 30.3 1.82443
      vertex 34 30.3 1
      vertex 34 30.3 2
    endloop
  endfacet
  facet normal 0 1 0
    outer loop
      vertex 34.9283 30.3 1.31135
      vertex 34 30.3 1
      vertex 34.7252 30.3 1.45897
    endloop
  endfacet
  facet normal 0 1 0
    outer loop
      vertex 35.1484 30.3 1.19035
      vertex 34 30.3 1
      vertex 34.9283 30.3 1.31135
    endloop
  endfacet
  facet normal 0 1 0
    outer loop
      vertex 35.382 30.3 1.09789
      vertex 34 30.3 1
      vertex 35.1484 30.3 1.19035
    endloop
  endfacet
  facet normal 0 1 0
    outer loop
      vertex 35.6252 30.3 1.03543
      vertex 34 30.3 1
      vertex 35.382 30.3 1.09789
    endloop
  endfacet
  facet normal 0 1 0
    outer loop
      vertex 35.8744 30.3 1.00395
      vertex 34 30.3 1
      vertex 35.6252 30.3 1.03543
    endloop
  endfacet
  facet normal 0 1 0
    outer loop
      vertex 34 30.3 1
      vertex 35.8744 30.3 1.00395
      vertex 36 30.3 1
    endloop
  endfacet
  facet normal 0 -1 0
    outer loop
      vertex 34 2 1
      vertex 36 2 2
      vertex 34 2 2
    endloop
  endfacet
  facet normal 0 -1 -0
    outer loop
      vertex 36 2 2
      vertex 34 2 1
      vertex 36 2 1
    endloop
  endfacet
endsolid OpenSCAD_Model
