solid OpenSCAD_Model
  facet normal 0.809017 0.587785 0
    outer loop
      vertex 0.6 0 33
      vertex 0.18541 0.570634 0
      vertex 0.18541 0.570634 33
    endloop
  endfacet
  facet normal 0.809017 0.587785 0
    outer loop
      vertex 0.18541 0.570634 0
      vertex 0.6 0 33
      vertex 0.6 0 0
    endloop
  endfacet
  facet normal -0.309017 0.951056 0
    outer loop
      vertex 0.18541 0.570634 0
      vertex -0.48541 0.352671 33
      vertex 0.18541 0.570634 33
    endloop
  endfacet
  facet normal -0.309017 0.951056 0
    outer loop
      vertex -0.48541 0.352671 33
      vertex 0.18541 0.570634 0
      vertex -0.48541 0.352671 0
    endloop
  endfacet
  facet normal -1 0 0
    outer loop
      vertex -0.48541 -0.352671 0
      vertex -0.48541 0.352671 33
      vertex -0.48541 0.352671 0
    endloop
  endfacet
  facet normal -1 -0 0
    outer loop
      vertex -0.48541 0.352671 33
      vertex -0.48541 -0.352671 0
      vertex -0.48541 -0.352671 33
    endloop
  endfacet
  facet normal -0.309017 -0.951056 0
    outer loop
      vertex -0.48541 -0.352671 0
      vertex 0.18541 -0.570634 33
      vertex -0.48541 -0.352671 33
    endloop
  endfacet
  facet normal -0.309017 -0.951056 -0
    outer loop
      vertex 0.18541 -0.570634 33
      vertex -0.48541 -0.352671 0
      vertex 0.18541 -0.570634 0
    endloop
  endfacet
  facet normal 0.809017 -0.587785 0
    outer loop
      vertex 0.18541 -0.570634 33
      vertex 0.6 0 0
      vertex 0.6 0 33
    endloop
  endfacet
  facet normal 0.809017 -0.587785 0
    outer loop
      vertex 0.6 0 0
      vertex 0.18541 -0.570634 33
      vertex 0.18541 -0.570634 0
    endloop
  endfacet
  facet normal 0 0 -1
    outer loop
      vertex 0.18541 -0.570634 0
      vertex 0.18541 0.570634 0
      vertex 0.6 0 0
    endloop
  endfacet
  facet normal 0 0 -1
    outer loop
      vertex -0.48541 -0.352671 0
      vertex 0.18541 0.570634 0
      vertex 0.18541 -0.570634 0
    endloop
  endfacet
  facet normal 0 0 -1
    outer loop
      vertex 0.18541 0.570634 0
      vertex -0.48541 -0.352671 0
      vertex -0.48541 0.352671 0
    endloop
  endfacet
  facet normal 0 0 1
    outer loop
      vertex 0.18541 0.570634 33
      vertex 0.18541 -0.570634 33
      vertex 0.6 0 33
    endloop
  endfacet
  facet normal -0 0 1
    outer loop
      vertex -0.48541 0.352671 33
      vertex 0.18541 -0.570634 33
      vertex 0.18541 0.570634 33
    endloop
  endfacet
  facet normal 0 0 1
    outer loop
      vertex 0.18541 -0.570634 33
      vertex -0.48541 0.352671 33
      vertex -0.48541 -0.352671 33
    endloop
  endfacet
endsolid OpenSCAD_Model
