solid OpenSCAD_Model
  facet normal -0.866027 0.499997 0
    outer loop
      vertex -11 19.0526 -1
      vertex -12.9542 15.6678 3.5
      vertex -11 19.0526 6
    endloop
  endfacet
  facet normal -0.866031 0.49999 -7.00269e-06
    outer loop
      vertex -11 19.0526 -1
      vertex -14.4958 12.9976 3.5
      vertex -12.9542 15.6678 3.5
    endloop
  endfacet
  facet normal -0.866014 0.50002 0
    outer loop
      vertex -14.4958 12.9976 3.5
      vertex -15.7292 10.8614 3.5
      vertex -14.4958 12.9976 6
    endloop
  endfacet
  facet normal -0.866014 0.50002 4.58588e-05
    outer loop
      vertex -11 19.0526 -1
      vertex -15.7292 10.8614 3.5
      vertex -14.4958 12.9976 3.5
    endloop
  endfacet
  facet normal -0.866034 0.499984 -3.92861e-05
    outer loop
      vertex -11 19.0526 -1
      vertex -17.2708 8.19116 3.5
      vertex -15.7292 10.8614 3.5
    endloop
  endfacet
  facet normal -0.866014 0.50002 0
    outer loop
      vertex -17.2708 8.19116 3.5
      vertex -18.5042 6.05496 3.5
      vertex -17.2708 8.19116 6
    endloop
  endfacet
  facet normal -0.866026 0.499999 8.03958e-06
    outer loop
      vertex -22 0 -1
      vertex -17.2708 8.19116 3.5
      vertex -11 19.0526 -1
    endloop
  endfacet
  facet normal -0.866014 0.50002 -4.14142e-05
    outer loop
      vertex -17.2708 8.19116 3.5
      vertex -22 0 -1
      vertex -18.5042 6.05496 3.5
    endloop
  endfacet
  facet normal -0.866034 0.499984 2.1525e-05
    outer loop
      vertex -18.5042 6.05496 3.5
      vertex -22 0 -1
      vertex -20.0458 3.38472 3.5
    endloop
  endfacet
  facet normal -0.866022 0.500006 0
    outer loop
      vertex -22 0 6
      vertex -20.0458 3.38472 3.5
      vertex -22 0 -1
    endloop
  endfacet
  facet normal -0.866022 0.500006 0
    outer loop
      vertex -20.0458 3.38472 3.5
      vertex -22 0 6
      vertex -20.0458 3.38472 6
    endloop
  endfacet
  facet normal -0.866027 0.499997 0
    outer loop
      vertex -11 19.0526 6
      vertex -12.9542 15.6678 3.5
      vertex -12.9542 15.6678 6
    endloop
  endfacet
  facet normal -0.866014 0.50002 0
    outer loop
      vertex -14.4958 12.9976 6
      vertex -15.7292 10.8614 3.5
      vertex -15.7292 10.8614 6
    endloop
  endfacet
  facet normal -0.866014 0.50002 0
    outer loop
      vertex -17.2708 8.19116 6
      vertex -18.5042 6.05496 3.5
      vertex -18.5042 6.05496 6
    endloop
  endfacet
  facet normal 0 0 -1
    outer loop
      vertex 11 -19.0526 -1
      vertex 20 0 -1
      vertex 22 0 -1
    endloop
  endfacet
  facet normal 0 0 -1
    outer loop
      vertex 11 -19.0526 -1
      vertex 10 -17.3205 -1
      vertex 20 0 -1
    endloop
  endfacet
  facet normal 0 0 -1
    outer loop
      vertex 11 -19.0526 -1
      vertex -10 -17.3205 -1
      vertex 10 -17.3205 -1
    endloop
  endfacet
  facet normal 0 0 -1
    outer loop
      vertex -11 -19.0526 -1
      vertex -10 -17.3205 -1
      vertex 11 -19.0526 -1
    endloop
  endfacet
  facet normal 0 0 -1
    outer loop
      vertex -11 -19.0526 -1
      vertex -20 0 -1
      vertex -10 -17.3205 -1
    endloop
  endfacet
  facet normal -0 -0 -1
    outer loop
      vertex -20 0 -1
      vertex -11 -19.0526 -1
      vertex -22 0 -1
    endloop
  endfacet
  facet normal 0 0 -1
    outer loop
      vertex 20 0 -1
      vertex 11 19.0526 -1
      vertex 22 0 -1
    endloop
  endfacet
  facet normal 0 0 -1
    outer loop
      vertex 10 17.3205 -1
      vertex 11 19.0526 -1
      vertex 20 0 -1
    endloop
  endfacet
  facet normal 0 0 -1
    outer loop
      vertex -10 17.3205 -1
      vertex 11 19.0526 -1
      vertex 10 17.3205 -1
    endloop
  endfacet
  facet normal 0 0 -1
    outer loop
      vertex -10 17.3205 -1
      vertex -11 19.0526 -1
      vertex 11 19.0526 -1
    endloop
  endfacet
  facet normal 0 0 -1
    outer loop
      vertex -20 0 -1
      vertex -11 19.0526 -1
      vertex -10 17.3205 -1
    endloop
  endfacet
  facet normal 0 0 -1
    outer loop
      vertex -11 19.0526 -1
      vertex -20 0 -1
      vertex -22 0 -1
    endloop
  endfacet
  facet normal 0.866027 -0.499997 0
    outer loop
      vertex 12.9542 -15.6678 6
      vertex 11 -19.0526 6
      vertex 12.9542 -15.6678 3.5
    endloop
  endfacet
  facet normal 0.866014 -0.50002 0
    outer loop
      vertex 15.7292 -10.8614 6
      vertex 14.4958 -12.9976 6
      vertex 15.7292 -10.8614 3.5
    endloop
  endfacet
  facet normal 0.866014 -0.50002 0
    outer loop
      vertex 18.5042 -6.05496 6
      vertex 17.2708 -8.19116 6
      vertex 18.5042 -6.05496 3.5
    endloop
  endfacet
  facet normal 0.866022 -0.500006 0
    outer loop
      vertex 20.0458 -3.38472 3.5
      vertex 22 0 6
      vertex 20.0458 -3.38472 6
    endloop
  endfacet
  facet normal 0.866022 -0.500006 0
    outer loop
      vertex 22 0 6
      vertex 20.0458 -3.38472 3.5
      vertex 22 0 -1
    endloop
  endfacet
  facet normal 0.866034 -0.499984 2.1525e-05
    outer loop
      vertex 18.5042 -6.05496 3.5
      vertex 22 0 -1
      vertex 20.0458 -3.38472 3.5
    endloop
  endfacet
  facet normal 0.866014 -0.50002 0
    outer loop
      vertex 17.2708 -8.19116 3.5
      vertex 18.5042 -6.05496 3.5
      vertex 17.2708 -8.19116 6
    endloop
  endfacet
  facet normal 0.866014 -0.50002 -4.14142e-05
    outer loop
      vertex 17.2708 -8.19116 3.5
      vertex 22 0 -1
      vertex 18.5042 -6.05496 3.5
    endloop
  endfacet
  facet normal 0.866034 -0.499984 4.37304e-05
    outer loop
      vertex 15.7292 -10.8614 3.5
      vertex 22 0 -1
      vertex 17.2708 -8.19116 3.5
    endloop
  endfacet
  facet normal 0.866014 -0.50002 0
    outer loop
      vertex 14.4958 -12.9976 3.5
      vertex 15.7292 -10.8614 3.5
      vertex 14.4958 -12.9976 6
    endloop
  endfacet
  facet normal 0.866014 -0.50002 4.58588e-05
    outer loop
      vertex 11 -19.0526 -1
      vertex 15.7292 -10.8614 3.5
      vertex 14.4958 -12.9976 3.5
    endloop
  endfacet
  facet normal 0.866031 -0.49999 -7.00269e-06
    outer loop
      vertex 11 -19.0526 -1
      vertex 14.4958 -12.9976 3.5
      vertex 12.9542 -15.6678 3.5
    endloop
  endfacet
  facet normal 0.866026 -0.499999 -3.59515e-06
    outer loop
      vertex 15.7292 -10.8614 3.5
      vertex 11 -19.0526 -1
      vertex 22 0 -1
    endloop
  endfacet
  facet normal 0.866027 -0.499997 0
    outer loop
      vertex 11 -19.0526 -1
      vertex 12.9542 -15.6678 3.5
      vertex 11 -19.0526 6
    endloop
  endfacet
  facet normal 0 0 1
    outer loop
      vertex 10 -17.3205 6
      vertex 12.9542 -15.6678 6
      vertex 11.4542 -14.8018 6
    endloop
  endfacet
  facet normal 0 0 1
    outer loop
      vertex 12.9542 -15.6678 6
      vertex 10 -17.3205 6
      vertex 11 -19.0526 6
    endloop
  endfacet
  facet normal 0 0 1
    outer loop
      vertex 7.09167 -19.0526 6
      vertex 10 -17.3205 6
      vertex 7.09167 -17.3205 6
    endloop
  endfacet
  facet normal 0 0 1
    outer loop
      vertex 10 -17.3205 6
      vertex 7.09167 -19.0526 6
      vertex 11 -19.0526 6
    endloop
  endfacet
  facet normal -0 0 1
    outer loop
      vertex -10 -17.3205 6
      vertex -7.09167 -19.0526 6
      vertex -7.09167 -17.3205 6
    endloop
  endfacet
  facet normal 0 0 1
    outer loop
      vertex -10 -17.3205 6
      vertex -11 -19.0526 6
      vertex -7.09167 -19.0526 6
    endloop
  endfacet
  facet normal -0 0 1
    outer loop
      vertex -12.9542 -15.6678 6
      vertex -10 -17.3205 6
      vertex -11.4542 -14.8018 6
    endloop
  endfacet
  facet normal 0 0 1
    outer loop
      vertex -10 -17.3205 6
      vertex -12.9542 -15.6678 6
      vertex -11 -19.0526 6
    endloop
  endfacet
  facet normal 0 0 1
    outer loop
      vertex -18.5458 2.51869 6
      vertex -20.0458 3.38472 6
      vertex -20 0 6
    endloop
  endfacet
  facet normal 0 0 1
    outer loop
      vertex -20 0 6
      vertex -20.0458 -3.38472 6
      vertex -18.5458 -2.51869 6
    endloop
  endfacet
  facet normal 0 0 1
    outer loop
      vertex -22 0 6
      vertex -20 0 6
      vertex -20.0458 3.38472 6
    endloop
  endfacet
  facet normal 0 0 1
    outer loop
      vertex -20 0 6
      vertex -22 0 6
      vertex -20.0458 -3.38472 6
    endloop
  endfacet
  facet normal 0 0 1
    outer loop
      vertex -7.09167 19.0526 6
      vertex -10 17.3205 6
      vertex -7.09167 17.3205 6
    endloop
  endfacet
  facet normal -0 0 1
    outer loop
      vertex -11 19.0526 6
      vertex -10 17.3205 6
      vertex -7.09167 19.0526 6
    endloop
  endfacet
  facet normal 0 0 1
    outer loop
      vertex -12.9542 15.6678 6
      vertex -10 17.3205 6
      vertex -11 19.0526 6
    endloop
  endfacet
  facet normal 0 0 1
    outer loop
      vertex -10 17.3205 6
      vertex -12.9542 15.6678 6
      vertex -11.4542 14.8018 6
    endloop
  endfacet
  facet normal -0 0 1
    outer loop
      vertex 10 17.3205 6
      vertex 12.9542 15.6678 6
      vertex 11 19.0526 6
    endloop
  endfacet
  facet normal 0 0 1
    outer loop
      vertex 12.9542 15.6678 6
      vertex 10 17.3205 6
      vertex 11.4542 14.8018 6
    endloop
  endfacet
  facet normal -0 0 1
    outer loop
      vertex 7.09167 19.0526 6
      vertex 10 17.3205 6
      vertex 11 19.0526 6
    endloop
  endfacet
  facet normal 0 0 1
    outer loop
      vertex 10 17.3205 6
      vertex 7.09167 19.0526 6
      vertex 7.09167 17.3205 6
    endloop
  endfacet
  facet normal 0 0 1
    outer loop
      vertex 20 0 6
      vertex 22 0 6
      vertex 20.0458 3.38472 6
    endloop
  endfacet
  facet normal 0 0 1
    outer loop
      vertex 22 0 6
      vertex 20 0 6
      vertex 20.0458 -3.38472 6
    endloop
  endfacet
  facet normal 0 -0 1
    outer loop
      vertex 20 0 6
      vertex 20.0458 3.38472 6
      vertex 18.5458 2.51869 6
    endloop
  endfacet
  facet normal 0 0 1
    outer loop
      vertex 20.0458 -3.38472 6
      vertex 20 0 6
      vertex 18.5458 -2.51869 6
    endloop
  endfacet
  facet normal 0 0 1
    outer loop
      vertex -17.2708 8.19116 6
      vertex -17.0042 5.18894 6
      vertex -15.7708 7.32513 6
    endloop
  endfacet
  facet normal 0 0 1
    outer loop
      vertex -17.0042 5.18894 6
      vertex -17.2708 8.19116 6
      vertex -18.5042 6.05496 6
    endloop
  endfacet
  facet normal 0 0 1
    outer loop
      vertex -14.4958 12.9976 6
      vertex -14.2292 9.99537 6
      vertex -12.9958 12.1316 6
    endloop
  endfacet
  facet normal 0 0 1
    outer loop
      vertex -14.2292 9.99537 6
      vertex -14.4958 12.9976 6
      vertex -15.7292 10.8614 6
    endloop
  endfacet
  facet normal 0 0 1
    outer loop
      vertex -17.0042 -5.18894 6
      vertex -17.2708 -8.19116 6
      vertex -15.7708 -7.32513 6
    endloop
  endfacet
  facet normal 0 -0 1
    outer loop
      vertex -17.2708 -8.19116 6
      vertex -17.0042 -5.18894 6
      vertex -18.5042 -6.05496 6
    endloop
  endfacet
  facet normal 0 0 1
    outer loop
      vertex -14.2292 -9.99537 6
      vertex -14.4958 -12.9976 6
      vertex -12.9958 -12.1316 6
    endloop
  endfacet
  facet normal 0 -0 1
    outer loop
      vertex -14.4958 -12.9976 6
      vertex -14.2292 -9.99537 6
      vertex -15.7292 -10.8614 6
    endloop
  endfacet
  facet normal -0 0 1
    outer loop
      vertex -4.00833 -17.3205 6
      vertex -1.54167 -19.0526 6
      vertex -1.54167 -17.3205 6
    endloop
  endfacet
  facet normal 0 0 1
    outer loop
      vertex -1.54167 -19.0526 6
      vertex -4.00833 -17.3205 6
      vertex -4.00833 -19.0526 6
    endloop
  endfacet
  facet normal -0 0 1
    outer loop
      vertex 1.54167 -17.3205 6
      vertex 4.00833 -19.0526 6
      vertex 4.00833 -17.3205 6
    endloop
  endfacet
  facet normal 0 0 1
    outer loop
      vertex 4.00833 -19.0526 6
      vertex 1.54167 -17.3205 6
      vertex 1.54167 -19.0526 6
    endloop
  endfacet
  facet normal -0 0 1
    outer loop
      vertex -4.00833 19.0526 6
      vertex -1.54167 17.3205 6
      vertex -1.54167 19.0526 6
    endloop
  endfacet
  facet normal 0 0 1
    outer loop
      vertex -1.54167 17.3205 6
      vertex -4.00833 19.0526 6
      vertex -4.00833 17.3205 6
    endloop
  endfacet
  facet normal -0 0 1
    outer loop
      vertex 1.54167 19.0526 6
      vertex 4.00833 17.3205 6
      vertex 4.00833 19.0526 6
    endloop
  endfacet
  facet normal 0 0 1
    outer loop
      vertex 4.00833 17.3205 6
      vertex 1.54167 19.0526 6
      vertex 1.54167 17.3205 6
    endloop
  endfacet
  facet normal 0 0 1
    outer loop
      vertex 14.2292 -9.99537 6
      vertex 14.4958 -12.9976 6
      vertex 15.7292 -10.8614 6
    endloop
  endfacet
  facet normal 0 0 1
    outer loop
      vertex 14.4958 -12.9976 6
      vertex 14.2292 -9.99537 6
      vertex 12.9958 -12.1316 6
    endloop
  endfacet
  facet normal 0 0 1
    outer loop
      vertex 14.4958 12.9976 6
      vertex 14.2292 9.99537 6
      vertex 15.7292 10.8614 6
    endloop
  endfacet
  facet normal 0 -0 1
    outer loop
      vertex 14.2292 9.99537 6
      vertex 14.4958 12.9976 6
      vertex 12.9958 12.1316 6
    endloop
  endfacet
  facet normal 0 0 1
    outer loop
      vertex 17.0042 -5.18894 6
      vertex 17.2708 -8.19116 6
      vertex 18.5042 -6.05496 6
    endloop
  endfacet
  facet normal 0 0 1
    outer loop
      vertex 17.2708 -8.19116 6
      vertex 17.0042 -5.18894 6
      vertex 15.7708 -7.32513 6
    endloop
  endfacet
  facet normal 0 0 1
    outer loop
      vertex 17.2708 8.19116 6
      vertex 17.0042 5.18894 6
      vertex 18.5042 6.05496 6
    endloop
  endfacet
  facet normal 0 -0 1
    outer loop
      vertex 17.0042 5.18894 6
      vertex 17.2708 8.19116 6
      vertex 15.7708 7.32513 6
    endloop
  endfacet
  facet normal -0.866022 -0.500006 0
    outer loop
      vertex -22 0 -1
      vertex -20.0458 -3.38472 3.5
      vertex -22 0 6
    endloop
  endfacet
  facet normal -0.866034 -0.499984 2.1525e-05
    outer loop
      vertex -22 0 -1
      vertex -18.5042 -6.05496 3.5
      vertex -20.0458 -3.38472 3.5
    endloop
  endfacet
  facet normal -0.866014 -0.50002 0
    outer loop
      vertex -18.5042 -6.05496 3.5
      vertex -17.2708 -8.19116 3.5
      vertex -18.5042 -6.05496 6
    endloop
  endfacet
  facet normal -0.866014 -0.50002 -4.14142e-05
    outer loop
      vertex -22 0 -1
      vertex -17.2708 -8.19116 3.5
      vertex -18.5042 -6.05496 3.5
    endloop
  endfacet
  facet normal -0.866034 -0.499984 4.37304e-05
    outer loop
      vertex -22 0 -1
      vertex -15.7292 -10.8614 3.5
      vertex -17.2708 -8.19116 3.5
    endloop
  endfacet
  facet normal -0.866014 -0.50002 0
    outer loop
      vertex -15.7292 -10.8614 3.5
      vertex -14.4958 -12.9976 3.5
      vertex -15.7292 -10.8614 6
    endloop
  endfacet
  facet normal -0.866026 -0.499999 -3.59515e-06
    outer loop
      vertex -11 -19.0526 -1
      vertex -15.7292 -10.8614 3.5
      vertex -22 0 -1
    endloop
  endfacet
  facet normal -0.866014 -0.50002 4.58588e-05
    outer loop
      vertex -15.7292 -10.8614 3.5
      vertex -11 -19.0526 -1
      vertex -14.4958 -12.9976 3.5
    endloop
  endfacet
  facet normal -0.866031 -0.49999 -7.00269e-06
    outer loop
      vertex -14.4958 -12.9976 3.5
      vertex -11 -19.0526 -1
      vertex -12.9542 -15.6678 3.5
    endloop
  endfacet
  facet normal -0.866027 -0.499997 -0
    outer loop
      vertex -11 -19.0526 6
      vertex -12.9542 -15.6678 3.5
      vertex -11 -19.0526 -1
    endloop
  endfacet
  facet normal -0.866027 -0.499997 0
    outer loop
      vertex -12.9542 -15.6678 3.5
      vertex -11 -19.0526 6
      vertex -12.9542 -15.6678 6
    endloop
  endfacet
  facet normal -0.866022 -0.500006 0
    outer loop
      vertex -22 0 6
      vertex -20.0458 -3.38472 3.5
      vertex -20.0458 -3.38472 6
    endloop
  endfacet
  facet normal -0.866014 -0.50002 0
    outer loop
      vertex -18.5042 -6.05496 6
      vertex -17.2708 -8.19116 3.5
      vertex -17.2708 -8.19116 6
    endloop
  endfacet
  facet normal -0.866014 -0.50002 0
    outer loop
      vertex -15.7292 -10.8614 6
      vertex -14.4958 -12.9976 3.5
      vertex -14.4958 -12.9976 6
    endloop
  endfacet
  facet normal 0 -1 0
    outer loop
      vertex -11 -19.0526 6
      vertex -7.09167 -19.0526 3.5
      vertex -7.09167 -19.0526 6
    endloop
  endfacet
  facet normal 0 -1 0
    outer loop
      vertex -11 -19.0526 -1
      vertex -4.00833 -19.0526 3.5
      vertex -7.09167 -19.0526 3.5
    endloop
  endfacet
  facet normal 0 -1 -0
    outer loop
      vertex -4.00833 -19.0526 3.5
      vertex -11 -19.0526 -1
      vertex -1.54167 -19.0526 3.5
    endloop
  endfacet
  facet normal 0 -1 -0
    outer loop
      vertex -1.54167 -19.0526 3.5
      vertex -11 -19.0526 -1
      vertex 1.54167 -19.0526 3.5
    endloop
  endfacet
  facet normal 0 -1 0
    outer loop
      vertex 11 -19.0526 -1
      vertex 1.54167 -19.0526 3.5
      vertex -11 -19.0526 -1
    endloop
  endfacet
  facet normal 0 -1 0
    outer loop
      vertex 1.54167 -19.0526 3.5
      vertex 11 -19.0526 -1
      vertex 4.00833 -19.0526 3.5
    endloop
  endfacet
  facet normal 0 -1 0
    outer loop
      vertex -11 -19.0526 -1
      vertex -7.09167 -19.0526 3.5
      vertex -11 -19.0526 6
    endloop
  endfacet
  facet normal 0 -1 0
    outer loop
      vertex -4.00833 -19.0526 3.5
      vertex -1.54167 -19.0526 6
      vertex -4.00833 -19.0526 6
    endloop
  endfacet
  facet normal 0 -1 -0
    outer loop
      vertex -1.54167 -19.0526 6
      vertex -4.00833 -19.0526 3.5
      vertex -1.54167 -19.0526 3.5
    endloop
  endfacet
  facet normal 0 -1 0
    outer loop
      vertex 1.54167 -19.0526 3.5
      vertex 4.00833 -19.0526 6
      vertex 1.54167 -19.0526 6
    endloop
  endfacet
  facet normal 0 -1 -0
    outer loop
      vertex 4.00833 -19.0526 6
      vertex 1.54167 -19.0526 3.5
      vertex 4.00833 -19.0526 3.5
    endloop
  endfacet
  facet normal 0 -1 0
    outer loop
      vertex 7.09167 -19.0526 3.5
      vertex 11 -19.0526 6
      vertex 7.09167 -19.0526 6
    endloop
  endfacet
  facet normal 0 -1 0
    outer loop
      vertex 7.09167 -19.0526 3.5
      vertex 11 -19.0526 -1
      vertex 11 -19.0526 6
    endloop
  endfacet
  facet normal 0 -1 0
    outer loop
      vertex 4.00833 -19.0526 3.5
      vertex 11 -19.0526 -1
      vertex 7.09167 -19.0526 3.5
    endloop
  endfacet
  facet normal 0 1 0
    outer loop
      vertex 11 19.0526 6
      vertex 7.09167 19.0526 3.5
      vertex 7.09167 19.0526 6
    endloop
  endfacet
  facet normal 0 1 0
    outer loop
      vertex 11 19.0526 -1
      vertex 4.00833 19.0526 3.5
      vertex 7.09167 19.0526 3.5
    endloop
  endfacet
  facet normal 0 1 0
    outer loop
      vertex 4.00833 19.0526 3.5
      vertex 11 19.0526 -1
      vertex 1.54167 19.0526 3.5
    endloop
  endfacet
  facet normal 0 1 0
    outer loop
      vertex 1.54167 19.0526 3.5
      vertex 11 19.0526 -1
      vertex -1.54167 19.0526 3.5
    endloop
  endfacet
  facet normal 0 1 0
    outer loop
      vertex -11 19.0526 -1
      vertex -1.54167 19.0526 3.5
      vertex 11 19.0526 -1
    endloop
  endfacet
  facet normal 0 1 0
    outer loop
      vertex -1.54167 19.0526 3.5
      vertex -11 19.0526 -1
      vertex -4.00833 19.0526 3.5
    endloop
  endfacet
  facet normal 0 1 -0
    outer loop
      vertex 11 19.0526 -1
      vertex 7.09167 19.0526 3.5
      vertex 11 19.0526 6
    endloop
  endfacet
  facet normal 0 1 -0
    outer loop
      vertex 4.00833 19.0526 3.5
      vertex 1.54167 19.0526 6
      vertex 4.00833 19.0526 6
    endloop
  endfacet
  facet normal 0 1 0
    outer loop
      vertex 1.54167 19.0526 6
      vertex 4.00833 19.0526 3.5
      vertex 1.54167 19.0526 3.5
    endloop
  endfacet
  facet normal 0 1 -0
    outer loop
      vertex -1.54167 19.0526 3.5
      vertex -4.00833 19.0526 6
      vertex -1.54167 19.0526 6
    endloop
  endfacet
  facet normal 0 1 0
    outer loop
      vertex -4.00833 19.0526 6
      vertex -1.54167 19.0526 3.5
      vertex -4.00833 19.0526 3.5
    endloop
  endfacet
  facet normal 0 1 -0
    outer loop
      vertex -7.09167 19.0526 3.5
      vertex -11 19.0526 6
      vertex -7.09167 19.0526 6
    endloop
  endfacet
  facet normal 0 1 0
    outer loop
      vertex -7.09167 19.0526 3.5
      vertex -11 19.0526 -1
      vertex -11 19.0526 6
    endloop
  endfacet
  facet normal 0 1 0
    outer loop
      vertex -4.00833 19.0526 3.5
      vertex -11 19.0526 -1
      vertex -7.09167 19.0526 3.5
    endloop
  endfacet
  facet normal 0.866022 0.500006 0
    outer loop
      vertex 20.0458 3.38472 6
      vertex 22 0 6
      vertex 20.0458 3.38472 3.5
    endloop
  endfacet
  facet normal 0.866014 0.50002 0
    outer loop
      vertex 17.2708 8.19116 6
      vertex 18.5042 6.05496 6
      vertex 17.2708 8.19116 3.5
    endloop
  endfacet
  facet normal 0.866014 0.50002 0
    outer loop
      vertex 14.4958 12.9976 6
      vertex 15.7292 10.8614 6
      vertex 14.4958 12.9976 3.5
    endloop
  endfacet
  facet normal 0.866027 0.499997 -0
    outer loop
      vertex 12.9542 15.6678 3.5
      vertex 11 19.0526 6
      vertex 12.9542 15.6678 6
    endloop
  endfacet
  facet normal 0.866027 0.499997 0
    outer loop
      vertex 11 19.0526 6
      vertex 12.9542 15.6678 3.5
      vertex 11 19.0526 -1
    endloop
  endfacet
  facet normal 0.866031 0.49999 -7.00269e-06
    outer loop
      vertex 14.4958 12.9976 3.5
      vertex 11 19.0526 -1
      vertex 12.9542 15.6678 3.5
    endloop
  endfacet
  facet normal 0.866014 0.50002 -0
    outer loop
      vertex 15.7292 10.8614 3.5
      vertex 14.4958 12.9976 3.5
      vertex 15.7292 10.8614 6
    endloop
  endfacet
  facet normal 0.866014 0.50002 4.58588e-05
    outer loop
      vertex 15.7292 10.8614 3.5
      vertex 11 19.0526 -1
      vertex 14.4958 12.9976 3.5
    endloop
  endfacet
  facet normal 0.866034 0.499984 -3.92861e-05
    outer loop
      vertex 17.2708 8.19116 3.5
      vertex 11 19.0526 -1
      vertex 15.7292 10.8614 3.5
    endloop
  endfacet
  facet normal 0.866014 0.50002 -0
    outer loop
      vertex 18.5042 6.05496 3.5
      vertex 17.2708 8.19116 3.5
      vertex 18.5042 6.05496 6
    endloop
  endfacet
  facet normal 0.866014 0.50002 -4.14142e-05
    outer loop
      vertex 22 0 -1
      vertex 17.2708 8.19116 3.5
      vertex 18.5042 6.05496 3.5
    endloop
  endfacet
  facet normal 0.866034 0.499984 2.1525e-05
    outer loop
      vertex 22 0 -1
      vertex 18.5042 6.05496 3.5
      vertex 20.0458 3.38472 3.5
    endloop
  endfacet
  facet normal 0.866026 0.499999 8.03958e-06
    outer loop
      vertex 17.2708 8.19116 3.5
      vertex 22 0 -1
      vertex 11 19.0526 -1
    endloop
  endfacet
  facet normal 0.866022 0.500006 -0
    outer loop
      vertex 22 0 -1
      vertex 20.0458 3.38472 3.5
      vertex 22 0 6
    endloop
  endfacet
  facet normal 0.86602 -0.500009 0
    outer loop
      vertex -18.5458 2.51869 6
      vertex -20 0 6
      vertex -18.5458 2.51869 3.5
    endloop
  endfacet
  facet normal 0.866013 -0.500021 0
    outer loop
      vertex -15.7708 7.32513 6
      vertex -17.0042 5.18894 6
      vertex -15.7708 7.32513 3.5
    endloop
  endfacet
  facet normal 0.866017 -0.500014 0
    outer loop
      vertex -12.9958 12.1316 6
      vertex -14.2292 9.99537 6
      vertex -12.9958 12.1316 3.5
    endloop
  endfacet
  facet normal 0.866021 -0.500007 0
    outer loop
      vertex -11.4542 14.8018 3.5
      vertex -10 17.3205 6
      vertex -11.4542 14.8018 6
    endloop
  endfacet
  facet normal 0.866021 -0.500007 0
    outer loop
      vertex -10 17.3205 6
      vertex -11.4542 14.8018 3.5
      vertex -10 17.3205 -1
    endloop
  endfacet
  facet normal 0.866031 -0.49999 1.27513e-05
    outer loop
      vertex -12.9958 12.1316 3.5
      vertex -10 17.3205 -1
      vertex -11.4542 14.8018 3.5
    endloop
  endfacet
  facet normal 0.866017 -0.500014 0
    outer loop
      vertex -14.2292 9.99537 3.5
      vertex -12.9958 12.1316 3.5
      vertex -14.2292 9.99537 6
    endloop
  endfacet
  facet normal 0.866017 -0.500014 -2.44522e-05
    outer loop
      vertex -14.2292 9.99537 3.5
      vertex -10 17.3205 -1
      vertex -12.9958 12.1316 3.5
    endloop
  endfacet
  facet normal 0.866034 -0.499984 4.026e-05
    outer loop
      vertex -15.7708 7.32513 3.5
      vertex -10 17.3205 -1
      vertex -14.2292 9.99537 3.5
    endloop
  endfacet
  facet normal 0.866013 -0.500021 0
    outer loop
      vertex -17.0042 5.18894 3.5
      vertex -15.7708 7.32513 3.5
      vertex -17.0042 5.18894 6
    endloop
  endfacet
  facet normal 0.866013 -0.500021 3.96927e-05
    outer loop
      vertex -20 0 -1
      vertex -15.7708 7.32513 3.5
      vertex -17.0042 5.18894 3.5
    endloop
  endfacet
  facet normal 0.866035 -0.499983 -1.91026e-05
    outer loop
      vertex -20 0 -1
      vertex -17.0042 5.18894 3.5
      vertex -18.5458 2.51869 3.5
    endloop
  endfacet
  facet normal 0.86602 -0.500009 0
    outer loop
      vertex -20 0 3
      vertex -18.5458 2.51869 3.5
      vertex -20 0 6
    endloop
  endfacet
  facet normal 0.86602 -0.500009 0
    outer loop
      vertex -20 0 2
      vertex -18.5458 2.51869 3.5
      vertex -20 0 3
    endloop
  endfacet
  facet normal 0.86602 -0.500009 0
    outer loop
      vertex -20 0 -1
      vertex -18.5458 2.51869 3.5
      vertex -20 0 2
    endloop
  endfacet
  facet normal 0.866025 -0.5 -6.20667e-06
    outer loop
      vertex -15.7708 7.32513 3.5
      vertex -20 0 -1
      vertex -10 17.3205 -1
    endloop
  endfacet
  facet normal -0.86602 0.500009 0
    outer loop
      vertex 18.5458 -2.51869 3.5
      vertex 20 0 2
      vertex 20 0 -1
    endloop
  endfacet
  facet normal -0.86602 0.500009 0
    outer loop
      vertex 20 0 2
      vertex 18.5458 -2.51869 3.5
      vertex 20 0 3
    endloop
  endfacet
  facet normal -0.86602 0.500009 0
    outer loop
      vertex 20 0 3
      vertex 18.5458 -2.51869 3.5
      vertex 20 0 6
    endloop
  endfacet
  facet normal -0.866035 0.499983 -1.91026e-05
    outer loop
      vertex 20 0 -1
      vertex 17.0042 -5.18894 3.5
      vertex 18.5458 -2.51869 3.5
    endloop
  endfacet
  facet normal -0.866013 0.500021 0
    outer loop
      vertex 17.0042 -5.18894 3.5
      vertex 15.7708 -7.32513 3.5
      vertex 17.0042 -5.18894 6
    endloop
  endfacet
  facet normal -0.866013 0.500021 3.96927e-05
    outer loop
      vertex 20 0 -1
      vertex 15.7708 -7.32513 3.5
      vertex 17.0042 -5.18894 3.5
    endloop
  endfacet
  facet normal -0.866034 0.499984 -4.026e-05
    outer loop
      vertex 20 0 -1
      vertex 14.2292 -9.99537 3.5
      vertex 15.7708 -7.32513 3.5
    endloop
  endfacet
  facet normal -0.866017 0.500014 0
    outer loop
      vertex 14.2292 -9.99537 3.5
      vertex 12.9958 -12.1316 3.5
      vertex 14.2292 -9.99537 6
    endloop
  endfacet
  facet normal -0.866025 0.5 6.20667e-06
    outer loop
      vertex 10 -17.3205 -1
      vertex 14.2292 -9.99537 3.5
      vertex 20 0 -1
    endloop
  endfacet
  facet normal -0.866017 0.500014 -2.44522e-05
    outer loop
      vertex 14.2292 -9.99537 3.5
      vertex 10 -17.3205 -1
      vertex 12.9958 -12.1316 3.5
    endloop
  endfacet
  facet normal -0.866031 0.49999 1.27513e-05
    outer loop
      vertex 12.9958 -12.1316 3.5
      vertex 10 -17.3205 -1
      vertex 11.4542 -14.8018 3.5
    endloop
  endfacet
  facet normal -0.866021 0.500007 0
    outer loop
      vertex 10 -17.3205 6
      vertex 11.4542 -14.8018 3.5
      vertex 10 -17.3205 -1
    endloop
  endfacet
  facet normal -0.866021 0.500007 0
    outer loop
      vertex 11.4542 -14.8018 3.5
      vertex 10 -17.3205 6
      vertex 11.4542 -14.8018 6
    endloop
  endfacet
  facet normal -0.86602 0.500009 0
    outer loop
      vertex 20 0 6
      vertex 18.5458 -2.51869 3.5
      vertex 18.5458 -2.51869 6
    endloop
  endfacet
  facet normal -0.866013 0.500021 0
    outer loop
      vertex 17.0042 -5.18894 6
      vertex 15.7708 -7.32513 3.5
      vertex 15.7708 -7.32513 6
    endloop
  endfacet
  facet normal -0.866017 0.500014 0
    outer loop
      vertex 14.2292 -9.99537 6
      vertex 12.9958 -12.1316 3.5
      vertex 12.9958 -12.1316 6
    endloop
  endfacet
  facet normal 0.866021 0.500007 0
    outer loop
      vertex -11.4542 -14.8018 6
      vertex -10 -17.3205 6
      vertex -11.4542 -14.8018 3.5
    endloop
  endfacet
  facet normal 0.866017 0.500014 0
    outer loop
      vertex -14.2292 -9.99537 6
      vertex -12.9958 -12.1316 6
      vertex -14.2292 -9.99537 3.5
    endloop
  endfacet
  facet normal 0.866013 0.500021 0
    outer loop
      vertex -17.0042 -5.18894 6
      vertex -15.7708 -7.32513 6
      vertex -17.0042 -5.18894 3.5
    endloop
  endfacet
  facet normal 0.86602 0.500009 0
    outer loop
      vertex -18.5458 -2.51869 3.5
      vertex -20 0 3
      vertex -20 0 6
    endloop
  endfacet
  facet normal 0.86602 0.500009 0
    outer loop
      vertex -20 0 3
      vertex -18.5458 -2.51869 3.5
      vertex -20 0 2
    endloop
  endfacet
  facet normal 0.86602 0.500009 -0
    outer loop
      vertex -18.5458 -2.51869 3.5
      vertex -20 0 6
      vertex -18.5458 -2.51869 6
    endloop
  endfacet
  facet normal 0.86602 0.500009 0
    outer loop
      vertex -20 0 2
      vertex -18.5458 -2.51869 3.5
      vertex -20 0 -1
    endloop
  endfacet
  facet normal 0.866035 0.499983 -1.91026e-05
    outer loop
      vertex -17.0042 -5.18894 3.5
      vertex -20 0 -1
      vertex -18.5458 -2.51869 3.5
    endloop
  endfacet
  facet normal 0.866013 0.500021 -0
    outer loop
      vertex -15.7708 -7.32513 3.5
      vertex -17.0042 -5.18894 3.5
      vertex -15.7708 -7.32513 6
    endloop
  endfacet
  facet normal 0.866013 0.500021 3.96927e-05
    outer loop
      vertex -15.7708 -7.32513 3.5
      vertex -20 0 -1
      vertex -17.0042 -5.18894 3.5
    endloop
  endfacet
  facet normal 0.866034 0.499984 -4.026e-05
    outer loop
      vertex -14.2292 -9.99537 3.5
      vertex -20 0 -1
      vertex -15.7708 -7.32513 3.5
    endloop
  endfacet
  facet normal 0.866017 0.500014 -0
    outer loop
      vertex -12.9958 -12.1316 3.5
      vertex -14.2292 -9.99537 3.5
      vertex -12.9958 -12.1316 6
    endloop
  endfacet
  facet normal 0.866017 0.500014 -2.44522e-05
    outer loop
      vertex -10 -17.3205 -1
      vertex -14.2292 -9.99537 3.5
      vertex -12.9958 -12.1316 3.5
    endloop
  endfacet
  facet normal 0.866031 0.49999 1.27513e-05
    outer loop
      vertex -10 -17.3205 -1
      vertex -12.9958 -12.1316 3.5
      vertex -11.4542 -14.8018 3.5
    endloop
  endfacet
  facet normal 0.866025 0.5 6.20667e-06
    outer loop
      vertex -14.2292 -9.99537 3.5
      vertex -10 -17.3205 -1
      vertex -20 0 -1
    endloop
  endfacet
  facet normal 0.866021 0.500007 -0
    outer loop
      vertex -10 -17.3205 -1
      vertex -11.4542 -14.8018 3.5
      vertex -10 -17.3205 6
    endloop
  endfacet
  facet normal 0 -1 0
    outer loop
      vertex -10 17.3205 6
      vertex -7.09167 17.3205 3.5
      vertex -7.09167 17.3205 6
    endloop
  endfacet
  facet normal 0 -1 0
    outer loop
      vertex -10 17.3205 -1
      vertex -4.00833 17.3205 3.5
      vertex -7.09167 17.3205 3.5
    endloop
  endfacet
  facet normal 0 -1 -0
    outer loop
      vertex -4.00833 17.3205 3.5
      vertex -10 17.3205 -1
      vertex -1.54167 17.3205 3.5
    endloop
  endfacet
  facet normal 0 -1 -0
    outer loop
      vertex -1.54167 17.3205 3.5
      vertex -10 17.3205 -1
      vertex 1.54167 17.3205 3.5
    endloop
  endfacet
  facet normal 0 -1 0
    outer loop
      vertex 10 17.3205 -1
      vertex 1.54167 17.3205 3.5
      vertex -10 17.3205 -1
    endloop
  endfacet
  facet normal 0 -1 0
    outer loop
      vertex 1.54167 17.3205 3.5
      vertex 10 17.3205 -1
      vertex 4.00833 17.3205 3.5
    endloop
  endfacet
  facet normal 0 -1 0
    outer loop
      vertex -10 17.3205 -1
      vertex -7.09167 17.3205 3.5
      vertex -10 17.3205 6
    endloop
  endfacet
  facet normal 0 -1 0
    outer loop
      vertex -4.00833 17.3205 3.5
      vertex -1.54167 17.3205 6
      vertex -4.00833 17.3205 6
    endloop
  endfacet
  facet normal 0 -1 -0
    outer loop
      vertex -1.54167 17.3205 6
      vertex -4.00833 17.3205 3.5
      vertex -1.54167 17.3205 3.5
    endloop
  endfacet
  facet normal 0 -1 0
    outer loop
      vertex 1.54167 17.3205 3.5
      vertex 4.00833 17.3205 6
      vertex 1.54167 17.3205 6
    endloop
  endfacet
  facet normal 0 -1 -0
    outer loop
      vertex 4.00833 17.3205 6
      vertex 1.54167 17.3205 3.5
      vertex 4.00833 17.3205 3.5
    endloop
  endfacet
  facet normal 0 -1 0
    outer loop
      vertex 7.09167 17.3205 3.5
      vertex 10 17.3205 6
      vertex 7.09167 17.3205 6
    endloop
  endfacet
  facet normal 0 -1 0
    outer loop
      vertex 7.09167 17.3205 3.5
      vertex 10 17.3205 -1
      vertex 10 17.3205 6
    endloop
  endfacet
  facet normal 0 -1 0
    outer loop
      vertex 4.00833 17.3205 3.5
      vertex 10 17.3205 -1
      vertex 7.09167 17.3205 3.5
    endloop
  endfacet
  facet normal 0 1 0
    outer loop
      vertex 10 -17.3205 6
      vertex 7.09167 -17.3205 3.5
      vertex 7.09167 -17.3205 6
    endloop
  endfacet
  facet normal 0 1 0
    outer loop
      vertex 10 -17.3205 -1
      vertex 4.00833 -17.3205 3.5
      vertex 7.09167 -17.3205 3.5
    endloop
  endfacet
  facet normal 0 1 0
    outer loop
      vertex 4.00833 -17.3205 3.5
      vertex 10 -17.3205 -1
      vertex 1.54167 -17.3205 3.5
    endloop
  endfacet
  facet normal 0 1 0
    outer loop
      vertex 1.54167 -17.3205 3.5
      vertex 10 -17.3205 -1
      vertex -1.54167 -17.3205 3.5
    endloop
  endfacet
  facet normal 0 1 0
    outer loop
      vertex -10 -17.3205 -1
      vertex -1.54167 -17.3205 3.5
      vertex 10 -17.3205 -1
    endloop
  endfacet
  facet normal 0 1 0
    outer loop
      vertex -1.54167 -17.3205 3.5
      vertex -10 -17.3205 -1
      vertex -4.00833 -17.3205 3.5
    endloop
  endfacet
  facet normal 0 1 -0
    outer loop
      vertex 10 -17.3205 -1
      vertex 7.09167 -17.3205 3.5
      vertex 10 -17.3205 6
    endloop
  endfacet
  facet normal 0 1 -0
    outer loop
      vertex 4.00833 -17.3205 3.5
      vertex 1.54167 -17.3205 6
      vertex 4.00833 -17.3205 6
    endloop
  endfacet
  facet normal 0 1 0
    outer loop
      vertex 1.54167 -17.3205 6
      vertex 4.00833 -17.3205 3.5
      vertex 1.54167 -17.3205 3.5
    endloop
  endfacet
  facet normal 0 1 -0
    outer loop
      vertex -1.54167 -17.3205 3.5
      vertex -4.00833 -17.3205 6
      vertex -1.54167 -17.3205 6
    endloop
  endfacet
  facet normal 0 1 0
    outer loop
      vertex -4.00833 -17.3205 6
      vertex -1.54167 -17.3205 3.5
      vertex -4.00833 -17.3205 3.5
    endloop
  endfacet
  facet normal 0 1 -0
    outer loop
      vertex -7.09167 -17.3205 3.5
      vertex -10 -17.3205 6
      vertex -7.09167 -17.3205 6
    endloop
  endfacet
  facet normal 0 1 0
    outer loop
      vertex -7.09167 -17.3205 3.5
      vertex -10 -17.3205 -1
      vertex -10 -17.3205 6
    endloop
  endfacet
  facet normal 0 1 0
    outer loop
      vertex -4.00833 -17.3205 3.5
      vertex -10 -17.3205 -1
      vertex -7.09167 -17.3205 3.5
    endloop
  endfacet
  facet normal -0.866021 -0.500007 0
    outer loop
      vertex 10 17.3205 -1
      vertex 11.4542 14.8018 3.5
      vertex 10 17.3205 6
    endloop
  endfacet
  facet normal -0.866031 -0.49999 1.27513e-05
    outer loop
      vertex 10 17.3205 -1
      vertex 12.9958 12.1316 3.5
      vertex 11.4542 14.8018 3.5
    endloop
  endfacet
  facet normal -0.866017 -0.500014 0
    outer loop
      vertex 12.9958 12.1316 3.5
      vertex 14.2292 9.99537 3.5
      vertex 12.9958 12.1316 6
    endloop
  endfacet
  facet normal -0.866017 -0.500014 -2.44522e-05
    outer loop
      vertex 10 17.3205 -1
      vertex 14.2292 9.99537 3.5
      vertex 12.9958 12.1316 3.5
    endloop
  endfacet
  facet normal -0.866034 -0.499984 4.026e-05
    outer loop
      vertex 10 17.3205 -1
      vertex 15.7708 7.32513 3.5
      vertex 14.2292 9.99537 3.5
    endloop
  endfacet
  facet normal -0.866013 -0.500021 0
    outer loop
      vertex 15.7708 7.32513 3.5
      vertex 17.0042 5.18894 3.5
      vertex 15.7708 7.32513 6
    endloop
  endfacet
  facet normal -0.866025 -0.5 -6.20667e-06
    outer loop
      vertex 20 0 -1
      vertex 15.7708 7.32513 3.5
      vertex 10 17.3205 -1
    endloop
  endfacet
  facet normal -0.866013 -0.500021 3.96927e-05
    outer loop
      vertex 15.7708 7.32513 3.5
      vertex 20 0 -1
      vertex 17.0042 5.18894 3.5
    endloop
  endfacet
  facet normal -0.866035 -0.499983 -1.91026e-05
    outer loop
      vertex 17.0042 5.18894 3.5
      vertex 20 0 -1
      vertex 18.5458 2.51869 3.5
    endloop
  endfacet
  facet normal -0.86602 -0.500009 -0
    outer loop
      vertex 20 0 2
      vertex 18.5458 2.51869 3.5
      vertex 20 0 -1
    endloop
  endfacet
  facet normal -0.86602 -0.500009 -0
    outer loop
      vertex 20 0 3
      vertex 18.5458 2.51869 3.5
      vertex 20 0 2
    endloop
  endfacet
  facet normal -0.86602 -0.500009 -0
    outer loop
      vertex 20 0 6
      vertex 18.5458 2.51869 3.5
      vertex 20 0 3
    endloop
  endfacet
  facet normal -0.86602 -0.500009 0
    outer loop
      vertex 18.5458 2.51869 3.5
      vertex 20 0 6
      vertex 18.5458 2.51869 6
    endloop
  endfacet
  facet normal -0.866021 -0.500007 0
    outer loop
      vertex 10 17.3205 6
      vertex 11.4542 14.8018 3.5
      vertex 11.4542 14.8018 6
    endloop
  endfacet
  facet normal -0.866017 -0.500014 0
    outer loop
      vertex 12.9958 12.1316 6
      vertex 14.2292 9.99537 3.5
      vertex 14.2292 9.99537 6
    endloop
  endfacet
  facet normal -0.866013 -0.500021 0
    outer loop
      vertex 15.7708 7.32513 6
      vertex 17.0042 5.18894 3.5
      vertex 17.0042 5.18894 6
    endloop
  endfacet
  facet normal -0.499998 -0.866027 0
    outer loop
      vertex -18.5042 6.05496 3.5
      vertex -17.0042 5.18894 6
      vertex -18.5042 6.05496 6
    endloop
  endfacet
  facet normal -0.499998 -0.866027 -0
    outer loop
      vertex -17.0042 5.18894 6
      vertex -18.5042 6.05496 3.5
      vertex -17.0042 5.18894 3.5
    endloop
  endfacet
  facet normal 0 0 1
    outer loop
      vertex -18.5042 6.05496 3.5
      vertex -18.5458 2.51869 3.5
      vertex -17.0042 5.18894 3.5
    endloop
  endfacet
  facet normal 0 -0 1
    outer loop
      vertex -18.5458 2.51869 3.5
      vertex -18.5042 6.05496 3.5
      vertex -20.0458 3.38472 3.5
    endloop
  endfacet
  facet normal 0.500002 0.866024 -0
    outer loop
      vertex -18.5458 2.51869 3.5
      vertex -20.0458 3.38472 6
      vertex -18.5458 2.51869 6
    endloop
  endfacet
  facet normal 0.500002 0.866024 0
    outer loop
      vertex -20.0458 3.38472 6
      vertex -18.5458 2.51869 3.5
      vertex -20.0458 3.38472 3.5
    endloop
  endfacet
  facet normal -0.500002 -0.866024 0
    outer loop
      vertex -15.7292 10.8614 3.5
      vertex -14.2292 9.99537 6
      vertex -15.7292 10.8614 6
    endloop
  endfacet
  facet normal -0.500002 -0.866024 -0
    outer loop
      vertex -14.2292 9.99537 6
      vertex -15.7292 10.8614 3.5
      vertex -14.2292 9.99537 3.5
    endloop
  endfacet
  facet normal 0 0 1
    outer loop
      vertex -15.7292 10.8614 3.5
      vertex -15.7708 7.32513 3.5
      vertex -14.2292 9.99537 3.5
    endloop
  endfacet
  facet normal 0 -0 1
    outer loop
      vertex -15.7708 7.32513 3.5
      vertex -15.7292 10.8614 3.5
      vertex -17.2708 8.19116 3.5
    endloop
  endfacet
  facet normal 0.500002 0.866024 -0
    outer loop
      vertex -15.7708 7.32513 3.5
      vertex -17.2708 8.19116 6
      vertex -15.7708 7.32513 6
    endloop
  endfacet
  facet normal 0.500002 0.866024 0
    outer loop
      vertex -17.2708 8.19116 6
      vertex -15.7708 7.32513 3.5
      vertex -17.2708 8.19116 3.5
    endloop
  endfacet
  facet normal -0.499989 -0.866032 0
    outer loop
      vertex -12.9542 15.6678 3.5
      vertex -11.4542 14.8018 6
      vertex -12.9542 15.6678 6
    endloop
  endfacet
  facet normal -0.499989 -0.866032 -0
    outer loop
      vertex -11.4542 14.8018 6
      vertex -12.9542 15.6678 3.5
      vertex -11.4542 14.8018 3.5
    endloop
  endfacet
  facet normal 0 0 1
    outer loop
      vertex -12.9542 15.6678 3.5
      vertex -12.9958 12.1316 3.5
      vertex -11.4542 14.8018 3.5
    endloop
  endfacet
  facet normal 0 -0 1
    outer loop
      vertex -12.9958 12.1316 3.5
      vertex -12.9542 15.6678 3.5
      vertex -14.4958 12.9976 3.5
    endloop
  endfacet
  facet normal 0.499989 0.866032 -0
    outer loop
      vertex -12.9958 12.1316 3.5
      vertex -14.4958 12.9976 6
      vertex -12.9958 12.1316 6
    endloop
  endfacet
  facet normal 0.499989 0.866032 0
    outer loop
      vertex -14.4958 12.9976 6
      vertex -12.9958 12.1316 3.5
      vertex -14.4958 12.9976 3.5
    endloop
  endfacet
  facet normal 0.499989 -0.866032 0
    outer loop
      vertex -14.4958 -12.9976 3.5
      vertex -12.9958 -12.1316 6
      vertex -14.4958 -12.9976 6
    endloop
  endfacet
  facet normal 0.499989 -0.866032 0
    outer loop
      vertex -12.9958 -12.1316 6
      vertex -14.4958 -12.9976 3.5
      vertex -12.9958 -12.1316 3.5
    endloop
  endfacet
  facet normal 0 0 1
    outer loop
      vertex -12.9958 -12.1316 3.5
      vertex -12.9542 -15.6678 3.5
      vertex -11.4542 -14.8018 3.5
    endloop
  endfacet
  facet normal 0 0 1
    outer loop
      vertex -12.9542 -15.6678 3.5
      vertex -12.9958 -12.1316 3.5
      vertex -14.4958 -12.9976 3.5
    endloop
  endfacet
  facet normal -0.499989 0.866032 0
    outer loop
      vertex -11.4542 -14.8018 3.5
      vertex -12.9542 -15.6678 6
      vertex -11.4542 -14.8018 6
    endloop
  endfacet
  facet normal -0.499989 0.866032 0
    outer loop
      vertex -12.9542 -15.6678 6
      vertex -11.4542 -14.8018 3.5
      vertex -12.9542 -15.6678 3.5
    endloop
  endfacet
  facet normal 0.500002 -0.866024 0
    outer loop
      vertex -17.2708 -8.19116 3.5
      vertex -15.7708 -7.32513 6
      vertex -17.2708 -8.19116 6
    endloop
  endfacet
  facet normal 0.500002 -0.866024 0
    outer loop
      vertex -15.7708 -7.32513 6
      vertex -17.2708 -8.19116 3.5
      vertex -15.7708 -7.32513 3.5
    endloop
  endfacet
  facet normal 0 0 1
    outer loop
      vertex -15.7708 -7.32513 3.5
      vertex -15.7292 -10.8614 3.5
      vertex -14.2292 -9.99537 3.5
    endloop
  endfacet
  facet normal 0 0 1
    outer loop
      vertex -15.7292 -10.8614 3.5
      vertex -15.7708 -7.32513 3.5
      vertex -17.2708 -8.19116 3.5
    endloop
  endfacet
  facet normal -0.500002 0.866024 0
    outer loop
      vertex -14.2292 -9.99537 3.5
      vertex -15.7292 -10.8614 6
      vertex -14.2292 -9.99537 6
    endloop
  endfacet
  facet normal -0.500002 0.866024 0
    outer loop
      vertex -15.7292 -10.8614 6
      vertex -14.2292 -9.99537 3.5
      vertex -15.7292 -10.8614 3.5
    endloop
  endfacet
  facet normal 0.500002 -0.866024 0
    outer loop
      vertex -20.0458 -3.38472 3.5
      vertex -18.5458 -2.51869 6
      vertex -20.0458 -3.38472 6
    endloop
  endfacet
  facet normal 0.500002 -0.866024 0
    outer loop
      vertex -18.5458 -2.51869 6
      vertex -20.0458 -3.38472 3.5
      vertex -18.5458 -2.51869 3.5
    endloop
  endfacet
  facet normal 0 0 1
    outer loop
      vertex -18.5458 -2.51869 3.5
      vertex -18.5042 -6.05496 3.5
      vertex -17.0042 -5.18894 3.5
    endloop
  endfacet
  facet normal 0 0 1
    outer loop
      vertex -18.5042 -6.05496 3.5
      vertex -18.5458 -2.51869 3.5
      vertex -20.0458 -3.38472 3.5
    endloop
  endfacet
  facet normal -0.499998 0.866027 0
    outer loop
      vertex -17.0042 -5.18894 3.5
      vertex -18.5042 -6.05496 6
      vertex -17.0042 -5.18894 6
    endloop
  endfacet
  facet normal -0.499998 0.866027 0
    outer loop
      vertex -18.5042 -6.05496 6
      vertex -17.0042 -5.18894 3.5
      vertex -18.5042 -6.05496 3.5
    endloop
  endfacet
  facet normal 1 -0 0
    outer loop
      vertex 4.00833 -19.0526 6
      vertex 4.00833 -17.3205 3.5
      vertex 4.00833 -17.3205 6
    endloop
  endfacet
  facet normal 1 0 0
    outer loop
      vertex 4.00833 -17.3205 3.5
      vertex 4.00833 -19.0526 6
      vertex 4.00833 -19.0526 3.5
    endloop
  endfacet
  facet normal -0 0 1
    outer loop
      vertex 4.00833 -17.3205 3.5
      vertex 7.09167 -19.0526 3.5
      vertex 7.09167 -17.3205 3.5
    endloop
  endfacet
  facet normal 0 0 1
    outer loop
      vertex 7.09167 -19.0526 3.5
      vertex 4.00833 -17.3205 3.5
      vertex 4.00833 -19.0526 3.5
    endloop
  endfacet
  facet normal -1 0 0
    outer loop
      vertex 7.09167 -19.0526 3.5
      vertex 7.09167 -17.3205 6
      vertex 7.09167 -17.3205 3.5
    endloop
  endfacet
  facet normal -1 -0 0
    outer loop
      vertex 7.09167 -17.3205 6
      vertex 7.09167 -19.0526 3.5
      vertex 7.09167 -19.0526 6
    endloop
  endfacet
  facet normal 1 -0 0
    outer loop
      vertex -1.54167 -19.0526 6
      vertex -1.54167 -17.3205 3.5
      vertex -1.54167 -17.3205 6
    endloop
  endfacet
  facet normal 1 0 0
    outer loop
      vertex -1.54167 -17.3205 3.5
      vertex -1.54167 -19.0526 6
      vertex -1.54167 -19.0526 3.5
    endloop
  endfacet
  facet normal -0 0 1
    outer loop
      vertex -1.54167 -17.3205 3.5
      vertex 1.54167 -19.0526 3.5
      vertex 1.54167 -17.3205 3.5
    endloop
  endfacet
  facet normal 0 0 1
    outer loop
      vertex 1.54167 -19.0526 3.5
      vertex -1.54167 -17.3205 3.5
      vertex -1.54167 -19.0526 3.5
    endloop
  endfacet
  facet normal -1 0 0
    outer loop
      vertex 1.54167 -19.0526 3.5
      vertex 1.54167 -17.3205 6
      vertex 1.54167 -17.3205 3.5
    endloop
  endfacet
  facet normal -1 -0 0
    outer loop
      vertex 1.54167 -17.3205 6
      vertex 1.54167 -19.0526 3.5
      vertex 1.54167 -19.0526 6
    endloop
  endfacet
  facet normal 1 -0 0
    outer loop
      vertex -7.09167 -19.0526 6
      vertex -7.09167 -17.3205 3.5
      vertex -7.09167 -17.3205 6
    endloop
  endfacet
  facet normal 1 0 0
    outer loop
      vertex -7.09167 -17.3205 3.5
      vertex -7.09167 -19.0526 6
      vertex -7.09167 -19.0526 3.5
    endloop
  endfacet
  facet normal -0 0 1
    outer loop
      vertex -7.09167 -17.3205 3.5
      vertex -4.00833 -19.0526 3.5
      vertex -4.00833 -17.3205 3.5
    endloop
  endfacet
  facet normal 0 0 1
    outer loop
      vertex -4.00833 -19.0526 3.5
      vertex -7.09167 -17.3205 3.5
      vertex -7.09167 -19.0526 3.5
    endloop
  endfacet
  facet normal -1 0 0
    outer loop
      vertex -4.00833 -19.0526 3.5
      vertex -4.00833 -17.3205 6
      vertex -4.00833 -17.3205 3.5
    endloop
  endfacet
  facet normal -1 -0 0
    outer loop
      vertex -4.00833 -17.3205 6
      vertex -4.00833 -19.0526 3.5
      vertex -4.00833 -19.0526 6
    endloop
  endfacet
  facet normal 0.499998 0.866027 -0
    outer loop
      vertex 18.5042 -6.05496 3.5
      vertex 17.0042 -5.18894 6
      vertex 18.5042 -6.05496 6
    endloop
  endfacet
  facet normal 0.499998 0.866027 0
    outer loop
      vertex 17.0042 -5.18894 6
      vertex 18.5042 -6.05496 3.5
      vertex 17.0042 -5.18894 3.5
    endloop
  endfacet
  facet normal 0 0 1
    outer loop
      vertex 18.5458 -2.51869 3.5
      vertex 18.5042 -6.05496 3.5
      vertex 20.0458 -3.38472 3.5
    endloop
  endfacet
  facet normal 0 -0 1
    outer loop
      vertex 18.5042 -6.05496 3.5
      vertex 18.5458 -2.51869 3.5
      vertex 17.0042 -5.18894 3.5
    endloop
  endfacet
  facet normal -0.500002 -0.866024 0
    outer loop
      vertex 18.5458 -2.51869 3.5
      vertex 20.0458 -3.38472 6
      vertex 18.5458 -2.51869 6
    endloop
  endfacet
  facet normal -0.500002 -0.866024 -0
    outer loop
      vertex 20.0458 -3.38472 6
      vertex 18.5458 -2.51869 3.5
      vertex 20.0458 -3.38472 3.5
    endloop
  endfacet
  facet normal 0.500002 0.866024 -0
    outer loop
      vertex 15.7292 -10.8614 3.5
      vertex 14.2292 -9.99537 6
      vertex 15.7292 -10.8614 6
    endloop
  endfacet
  facet normal 0.500002 0.866024 0
    outer loop
      vertex 14.2292 -9.99537 6
      vertex 15.7292 -10.8614 3.5
      vertex 14.2292 -9.99537 3.5
    endloop
  endfacet
  facet normal 0 0 1
    outer loop
      vertex 15.7708 -7.32513 3.5
      vertex 15.7292 -10.8614 3.5
      vertex 17.2708 -8.19116 3.5
    endloop
  endfacet
  facet normal 0 -0 1
    outer loop
      vertex 15.7292 -10.8614 3.5
      vertex 15.7708 -7.32513 3.5
      vertex 14.2292 -9.99537 3.5
    endloop
  endfacet
  facet normal -0.500002 -0.866024 0
    outer loop
      vertex 15.7708 -7.32513 3.5
      vertex 17.2708 -8.19116 6
      vertex 15.7708 -7.32513 6
    endloop
  endfacet
  facet normal -0.500002 -0.866024 -0
    outer loop
      vertex 17.2708 -8.19116 6
      vertex 15.7708 -7.32513 3.5
      vertex 17.2708 -8.19116 3.5
    endloop
  endfacet
  facet normal 0.499989 0.866032 -0
    outer loop
      vertex 12.9542 -15.6678 3.5
      vertex 11.4542 -14.8018 6
      vertex 12.9542 -15.6678 6
    endloop
  endfacet
  facet normal 0.499989 0.866032 0
    outer loop
      vertex 11.4542 -14.8018 6
      vertex 12.9542 -15.6678 3.5
      vertex 11.4542 -14.8018 3.5
    endloop
  endfacet
  facet normal 0 0 1
    outer loop
      vertex 12.9958 -12.1316 3.5
      vertex 12.9542 -15.6678 3.5
      vertex 14.4958 -12.9976 3.5
    endloop
  endfacet
  facet normal 0 -0 1
    outer loop
      vertex 12.9542 -15.6678 3.5
      vertex 12.9958 -12.1316 3.5
      vertex 11.4542 -14.8018 3.5
    endloop
  endfacet
  facet normal -0.499989 -0.866032 0
    outer loop
      vertex 12.9958 -12.1316 3.5
      vertex 14.4958 -12.9976 6
      vertex 12.9958 -12.1316 6
    endloop
  endfacet
  facet normal -0.499989 -0.866032 -0
    outer loop
      vertex 14.4958 -12.9976 6
      vertex 12.9958 -12.1316 3.5
      vertex 14.4958 -12.9976 3.5
    endloop
  endfacet
  facet normal -0.499989 0.866032 0
    outer loop
      vertex 14.4958 12.9976 3.5
      vertex 12.9958 12.1316 6
      vertex 14.4958 12.9976 6
    endloop
  endfacet
  facet normal -0.499989 0.866032 0
    outer loop
      vertex 12.9958 12.1316 6
      vertex 14.4958 12.9976 3.5
      vertex 12.9958 12.1316 3.5
    endloop
  endfacet
  facet normal 0 0 1
    outer loop
      vertex 12.9542 15.6678 3.5
      vertex 12.9958 12.1316 3.5
      vertex 14.4958 12.9976 3.5
    endloop
  endfacet
  facet normal 0 0 1
    outer loop
      vertex 12.9958 12.1316 3.5
      vertex 12.9542 15.6678 3.5
      vertex 11.4542 14.8018 3.5
    endloop
  endfacet
  facet normal 0.499989 -0.866032 0
    outer loop
      vertex 11.4542 14.8018 3.5
      vertex 12.9542 15.6678 6
      vertex 11.4542 14.8018 6
    endloop
  endfacet
  facet normal 0.499989 -0.866032 0
    outer loop
      vertex 12.9542 15.6678 6
      vertex 11.4542 14.8018 3.5
      vertex 12.9542 15.6678 3.5
    endloop
  endfacet
  facet normal -0.500002 0.866024 0
    outer loop
      vertex 17.2708 8.19116 3.5
      vertex 15.7708 7.32513 6
      vertex 17.2708 8.19116 6
    endloop
  endfacet
  facet normal -0.500002 0.866024 0
    outer loop
      vertex 15.7708 7.32513 6
      vertex 17.2708 8.19116 3.5
      vertex 15.7708 7.32513 3.5
    endloop
  endfacet
  facet normal 0 0 1
    outer loop
      vertex 15.7292 10.8614 3.5
      vertex 15.7708 7.32513 3.5
      vertex 17.2708 8.19116 3.5
    endloop
  endfacet
  facet normal 0 0 1
    outer loop
      vertex 15.7708 7.32513 3.5
      vertex 15.7292 10.8614 3.5
      vertex 14.2292 9.99537 3.5
    endloop
  endfacet
  facet normal 0.500002 -0.866024 0
    outer loop
      vertex 14.2292 9.99537 3.5
      vertex 15.7292 10.8614 6
      vertex 14.2292 9.99537 6
    endloop
  endfacet
  facet normal 0.500002 -0.866024 0
    outer loop
      vertex 15.7292 10.8614 6
      vertex 14.2292 9.99537 3.5
      vertex 15.7292 10.8614 3.5
    endloop
  endfacet
  facet normal -0.500002 0.866024 0
    outer loop
      vertex 20.0458 3.38472 3.5
      vertex 18.5458 2.51869 6
      vertex 20.0458 3.38472 6
    endloop
  endfacet
  facet normal -0.500002 0.866024 0
    outer loop
      vertex 18.5458 2.51869 6
      vertex 20.0458 3.38472 3.5
      vertex 18.5458 2.51869 3.5
    endloop
  endfacet
  facet normal 0 0 1
    outer loop
      vertex 18.5042 6.05496 3.5
      vertex 18.5458 2.51869 3.5
      vertex 20.0458 3.38472 3.5
    endloop
  endfacet
  facet normal 0 0 1
    outer loop
      vertex 18.5458 2.51869 3.5
      vertex 18.5042 6.05496 3.5
      vertex 17.0042 5.18894 3.5
    endloop
  endfacet
  facet normal 0.499998 -0.866027 0
    outer loop
      vertex 17.0042 5.18894 3.5
      vertex 18.5042 6.05496 6
      vertex 17.0042 5.18894 6
    endloop
  endfacet
  facet normal 0.499998 -0.866027 0
    outer loop
      vertex 18.5042 6.05496 6
      vertex 17.0042 5.18894 3.5
      vertex 18.5042 6.05496 3.5
    endloop
  endfacet
  facet normal -1 0 0
    outer loop
      vertex -4.00833 17.3205 3.5
      vertex -4.00833 19.0526 6
      vertex -4.00833 19.0526 3.5
    endloop
  endfacet
  facet normal -1 -0 0
    outer loop
      vertex -4.00833 19.0526 6
      vertex -4.00833 17.3205 3.5
      vertex -4.00833 17.3205 6
    endloop
  endfacet
  facet normal -0 0 1
    outer loop
      vertex -7.09167 19.0526 3.5
      vertex -4.00833 17.3205 3.5
      vertex -4.00833 19.0526 3.5
    endloop
  endfacet
  facet normal 0 0 1
    outer loop
      vertex -4.00833 17.3205 3.5
      vertex -7.09167 19.0526 3.5
      vertex -7.09167 17.3205 3.5
    endloop
  endfacet
  facet normal 1 -0 0
    outer loop
      vertex -7.09167 17.3205 6
      vertex -7.09167 19.0526 3.5
      vertex -7.09167 19.0526 6
    endloop
  endfacet
  facet normal 1 0 0
    outer loop
      vertex -7.09167 19.0526 3.5
      vertex -7.09167 17.3205 6
      vertex -7.09167 17.3205 3.5
    endloop
  endfacet
  facet normal -1 0 0
    outer loop
      vertex 1.54167 17.3205 3.5
      vertex 1.54167 19.0526 6
      vertex 1.54167 19.0526 3.5
    endloop
  endfacet
  facet normal -1 -0 0
    outer loop
      vertex 1.54167 19.0526 6
      vertex 1.54167 17.3205 3.5
      vertex 1.54167 17.3205 6
    endloop
  endfacet
  facet normal -0 0 1
    outer loop
      vertex -1.54167 19.0526 3.5
      vertex 1.54167 17.3205 3.5
      vertex 1.54167 19.0526 3.5
    endloop
  endfacet
  facet normal 0 0 1
    outer loop
      vertex 1.54167 17.3205 3.5
      vertex -1.54167 19.0526 3.5
      vertex -1.54167 17.3205 3.5
    endloop
  endfacet
  facet normal 1 -0 0
    outer loop
      vertex -1.54167 17.3205 6
      vertex -1.54167 19.0526 3.5
      vertex -1.54167 19.0526 6
    endloop
  endfacet
  facet normal 1 0 0
    outer loop
      vertex -1.54167 19.0526 3.5
      vertex -1.54167 17.3205 6
      vertex -1.54167 17.3205 3.5
    endloop
  endfacet
  facet normal -1 0 0
    outer loop
      vertex 7.09167 17.3205 3.5
      vertex 7.09167 19.0526 6
      vertex 7.09167 19.0526 3.5
    endloop
  endfacet
  facet normal -1 -0 0
    outer loop
      vertex 7.09167 19.0526 6
      vertex 7.09167 17.3205 3.5
      vertex 7.09167 17.3205 6
    endloop
  endfacet
  facet normal -0 0 1
    outer loop
      vertex 4.00833 19.0526 3.5
      vertex 7.09167 17.3205 3.5
      vertex 7.09167 19.0526 3.5
    endloop
  endfacet
  facet normal 0 0 1
    outer loop
      vertex 7.09167 17.3205 3.5
      vertex 4.00833 19.0526 3.5
      vertex 4.00833 17.3205 3.5
    endloop
  endfacet
  facet normal 1 -0 0
    outer loop
      vertex 4.00833 17.3205 6
      vertex 4.00833 19.0526 3.5
      vertex 4.00833 19.0526 6
    endloop
  endfacet
  facet normal 1 0 0
    outer loop
      vertex 4.00833 19.0526 3.5
      vertex 4.00833 17.3205 6
      vertex 4.00833 17.3205 3.5
    endloop
  endfacet
  facet normal -0.866025 0.5 0
    outer loop
      vertex -20 0 2
      vertex -10 17.3205 3
      vertex -10 17.3205 2
    endloop
  endfacet
  facet normal -0.866025 0.5 0
    outer loop
      vertex -10 17.3205 3
      vertex -20 0 2
      vertex -20 0 3
    endloop
  endfacet
  facet normal 0 0 -1
    outer loop
      vertex 10 -17.3205 2
      vertex 17.3 0 2
      vertex 20 0 2
    endloop
  endfacet
  facet normal 0 0 -1
    outer loop
      vertex 10 -17.3205 2
      vertex 8.64999 -14.9822 2
      vertex 17.3 0 2
    endloop
  endfacet
  facet normal 0 0 -1
    outer loop
      vertex 10 -17.3205 2
      vertex -8.64999 -14.9822 2
      vertex 8.64999 -14.9822 2
    endloop
  endfacet
  facet normal 0 0 -1
    outer loop
      vertex -10 -17.3205 2
      vertex -8.64999 -14.9822 2
      vertex 10 -17.3205 2
    endloop
  endfacet
  facet normal 0 0 -1
    outer loop
      vertex -10 -17.3205 2
      vertex -17.3 0 2
      vertex -8.64999 -14.9822 2
    endloop
  endfacet
  facet normal -0 -0 -1
    outer loop
      vertex -17.3 0 2
      vertex -10 -17.3205 2
      vertex -20 0 2
    endloop
  endfacet
  facet normal 0 0 -1
    outer loop
      vertex 17.3 0 2
      vertex 10 17.3205 2
      vertex 20 0 2
    endloop
  endfacet
  facet normal 0 0 -1
    outer loop
      vertex 8.64999 14.9822 2
      vertex 10 17.3205 2
      vertex 17.3 0 2
    endloop
  endfacet
  facet normal 0 0 -1
    outer loop
      vertex -8.64999 14.9822 2
      vertex 10 17.3205 2
      vertex 8.64999 14.9822 2
    endloop
  endfacet
  facet normal 0 0 -1
    outer loop
      vertex -8.64999 14.9822 2
      vertex -10 17.3205 2
      vertex 10 17.3205 2
    endloop
  endfacet
  facet normal 0 0 -1
    outer loop
      vertex -17.3 0 2
      vertex -10 17.3205 2
      vertex -8.64999 14.9822 2
    endloop
  endfacet
  facet normal 0 0 -1
    outer loop
      vertex -10 17.3205 2
      vertex -17.3 0 2
      vertex -20 0 2
    endloop
  endfacet
  facet normal 0.866025 -0.5 0
    outer loop
      vertex 10 -17.3205 3
      vertex 20 0 2
      vertex 20 0 3
    endloop
  endfacet
  facet normal 0.866025 -0.5 0
    outer loop
      vertex 20 0 2
      vertex 10 -17.3205 3
      vertex 10 -17.3205 2
    endloop
  endfacet
  facet normal 0 0 1
    outer loop
      vertex 10 17.3205 3
      vertex 10 -17.3205 3
      vertex 20 0 3
    endloop
  endfacet
  facet normal -0 0 1
    outer loop
      vertex -10 17.3205 3
      vertex 10 -17.3205 3
      vertex 10 17.3205 3
    endloop
  endfacet
  facet normal 0 0 1
    outer loop
      vertex -10 17.3205 3
      vertex -10 -17.3205 3
      vertex 10 -17.3205 3
    endloop
  endfacet
  facet normal 0 -0 1
    outer loop
      vertex -10 -17.3205 3
      vertex -10 17.3205 3
      vertex -20 0 3
    endloop
  endfacet
  facet normal -0.866025 -0.5 0
    outer loop
      vertex -10 -17.3205 2
      vertex -20 0 3
      vertex -20 0 2
    endloop
  endfacet
  facet normal -0.866025 -0.5 0
    outer loop
      vertex -20 0 3
      vertex -10 -17.3205 2
      vertex -10 -17.3205 3
    endloop
  endfacet
  facet normal 0 -1 0
    outer loop
      vertex -10 -17.3205 2
      vertex 10 -17.3205 3
      vertex -10 -17.3205 3
    endloop
  endfacet
  facet normal 0 -1 -0
    outer loop
      vertex 10 -17.3205 3
      vertex -10 -17.3205 2
      vertex 10 -17.3205 2
    endloop
  endfacet
  facet normal 0 1 -0
    outer loop
      vertex 10 17.3205 2
      vertex -10 17.3205 3
      vertex 10 17.3205 3
    endloop
  endfacet
  facet normal 0 1 0
    outer loop
      vertex -10 17.3205 3
      vertex 10 17.3205 2
      vertex -10 17.3205 2
    endloop
  endfacet
  facet normal 0.866025 0.5 0
    outer loop
      vertex 20 0 3
      vertex 10 17.3205 2
      vertex 10 17.3205 3
    endloop
  endfacet
  facet normal 0.866025 0.5 0
    outer loop
      vertex 10 17.3205 2
      vertex 20 0 3
      vertex 20 0 2
    endloop
  endfacet
  facet normal 0 1 -0
    outer loop
      vertex 8.64999 14.9822 -1
      vertex -8.64999 14.9822 2
      vertex 8.64999 14.9822 2
    endloop
  endfacet
  facet normal 0 1 0
    outer loop
      vertex -8.64999 14.9822 2
      vertex 8.64999 14.9822 -1
      vertex -8.64999 14.9822 -1
    endloop
  endfacet
  facet normal -0.866025 0.500001 0
    outer loop
      vertex -17.3 0 -1
      vertex -8.64999 14.9822 2
      vertex -8.64999 14.9822 -1
    endloop
  endfacet
  facet normal -0.866025 0.500001 0
    outer loop
      vertex -8.64999 14.9822 2
      vertex -17.3 0 -1
      vertex -17.3 0 2
    endloop
  endfacet
  facet normal -0.866025 -0.500001 0
    outer loop
      vertex -8.64999 -14.9822 -1
      vertex -17.3 0 2
      vertex -17.3 0 -1
    endloop
  endfacet
  facet normal -0.866025 -0.500001 0
    outer loop
      vertex -17.3 0 2
      vertex -8.64999 -14.9822 -1
      vertex -8.64999 -14.9822 2
    endloop
  endfacet
  facet normal 0 -1 0
    outer loop
      vertex -8.64999 -14.9822 -1
      vertex 8.64999 -14.9822 2
      vertex -8.64999 -14.9822 2
    endloop
  endfacet
  facet normal 0 -1 -0
    outer loop
      vertex 8.64999 -14.9822 2
      vertex -8.64999 -14.9822 -1
      vertex 8.64999 -14.9822 -1
    endloop
  endfacet
  facet normal 0 0 -1
    outer loop
      vertex 8.64999 -14.9822 -1
      vertex 8.64999 14.9822 -1
      vertex 17.3 0 -1
    endloop
  endfacet
  facet normal 0 0 -1
    outer loop
      vertex -8.64999 -14.9822 -1
      vertex 8.64999 14.9822 -1
      vertex 8.64999 -14.9822 -1
    endloop
  endfacet
  facet normal 0 0 -1
    outer loop
      vertex -8.64999 -14.9822 -1
      vertex -8.64999 14.9822 -1
      vertex 8.64999 14.9822 -1
    endloop
  endfacet
  facet normal 0 -0 -1
    outer loop
      vertex -8.64999 14.9822 -1
      vertex -8.64999 -14.9822 -1
      vertex -17.3 0 -1
    endloop
  endfacet
  facet normal 0.866025 -0.500001 0
    outer loop
      vertex 8.64999 -14.9822 2
      vertex 17.3 0 -1
      vertex 17.3 0 2
    endloop
  endfacet
  facet normal 0.866025 -0.500001 0
    outer loop
      vertex 17.3 0 -1
      vertex 8.64999 -14.9822 2
      vertex 8.64999 -14.9822 -1
    endloop
  endfacet
  facet normal 0.866025 0.500001 0
    outer loop
      vertex 17.3 0 2
      vertex 8.64999 14.9822 -1
      vertex 8.64999 14.9822 2
    endloop
  endfacet
  facet normal 0.866025 0.500001 0
    outer loop
      vertex 8.64999 14.9822 -1
      vertex 17.3 0 2
      vertex 17.3 0 -1
    endloop
  endfacet
endsolid OpenSCAD_Model
